<svg width="37" height="37" viewBox="0 0 37 37" fill="none" xmlns="http://www.w3.org/2000/svg">
<g clip-path="url(#clip0_64_1969)">
<path d="M31.6884 31.6584L31.6886 31.6583C32.4204 30.9266 32.4204 29.7359 31.6886 29.0041C31.3342 28.6498 30.8627 28.4543 30.3614 28.4543C29.8603 28.4543 29.3888 28.6498 29.0342 29.0045C28.3027 29.7359 28.3027 30.9266 29.0344 31.6583C29.7663 32.3899 30.9568 32.3899 31.6884 31.6584ZM29.6181 31.0746C29.4196 30.8761 29.3102 30.6121 29.3102 30.3312C29.3102 30.0504 29.4196 29.7862 29.6181 29.5878C29.8167 29.3893 30.0808 29.2799 30.3617 29.2799C30.6424 29.2799 30.9063 29.3893 31.105 29.5878C31.5148 29.9977 31.5148 30.6646 31.1048 31.0746C30.6949 31.4846 30.0281 31.4844 29.6181 31.0746Z" fill="#7BB92F"/>
<path d="M34.9636 8.27835C34.964 8.27782 34.9646 8.27747 34.965 8.27702C34.9659 8.27613 34.9667 8.27515 34.9676 8.27426L35.0807 8.1611L35.0779 8.15825C36.7601 6.35318 36.7231 3.51651 34.9647 1.75815C34.0941 0.887479 32.9366 0.407959 31.7053 0.407959C30.5289 0.407959 29.4205 0.846594 28.5646 1.64499L28.5618 1.64224L28.4485 1.75544C28.4477 1.75638 28.4467 1.75718 28.4458 1.75813C28.4454 1.75856 28.445 1.75906 28.4445 1.75955L1.36424 28.8397L1.37478 28.8503C1.22341 28.9479 1.11375 29.1082 1.08741 29.3006L0.196825 35.8057C0.169712 36.004 0.236908 36.2034 0.378351 36.3449C0.499115 36.4655 0.662162 36.5321 0.830655 36.5321C0.859474 36.5321 0.888478 36.5302 0.917482 36.5262L7.42231 35.6354C7.61481 35.6092 7.7751 35.4994 7.87272 35.348L7.88325 35.3586L34.9636 8.27835ZM31.7053 1.68738C32.5948 1.68738 33.431 2.03378 34.06 2.66278C35.2037 3.80645 35.3401 5.58208 34.469 6.87632L29.8461 2.2536C30.391 1.88533 31.033 1.68738 31.7053 1.68738ZM28.5618 3.45156L33.2714 8.16108L7.88325 33.5492L6.11146 31.7775L26.4907 11.3986L25.2707 10.1788L4.89173 30.5579L3.1736 28.8397L28.5618 3.45156ZM1.57869 35.1444L2.31211 29.7875L6.93537 34.4108L1.57869 35.1444Z" fill="#7BB92F"/>
<path d="M10.4203 16.5365L11.5876 15.3691L2.24622 6.02767L6.05788 2.21591L7.86521 4.0234L6.55393 5.3345L7.58915 6.36966L8.90043 5.05864L9.95414 6.11228L8.64286 7.42348L9.6781 8.45853L10.9895 7.14752L12.0431 8.20134L10.1032 10.1408L11.1387 11.1761L13.0783 9.2364L14.3631 10.5211L13.0518 11.8325L14.0871 12.8676L15.3983 11.5563L15.3992 11.5573L16.5666 10.39L6.64145 0.46497C6.3191 0.142536 5.79658 0.142536 5.47423 0.46497L0.495259 5.444C0.172804 5.76637 0.172804 6.28898 0.495259 6.61133L10.4203 16.5365Z" fill="#7BB92F"/>
<path d="M36.5671 30.387C36.5522 30.372 36.5367 30.3578 36.521 30.3442L26.1347 19.958L23.0275 23.0652L24.0606 24.0983L26.0005 22.1585L34.8145 30.9723L31.0026 34.784L21.1556 24.937L19.9883 26.1045L30.4189 36.535C30.7413 36.8575 31.2638 36.8575 31.5862 36.535L36.5655 31.5562C36.5659 31.5555 36.5665 31.5551 36.5671 31.5544C36.8895 31.2322 36.8895 30.7094 36.5671 30.387Z" fill="#7BB92F"/>
</g>
<defs>
<clipPath id="clip0_64_1969">
<rect width="37" height="37" fill="white"/>
</clipPath>
</defs>
</svg>
