<svg width="37" height="37" viewBox="0 0 37 37" fill="none" xmlns="http://www.w3.org/2000/svg">
<g clip-path="url(#clip0_64_2014)">
<mask id="mask0_64_2014" style="mask-type:luminance" maskUnits="userSpaceOnUse" x="0" y="0" width="37" height="37">
<path d="M36.948 0H0.182129V37H36.948V0Z" fill="white"/>
</mask>
<g mask="url(#mask0_64_2014)">
<path d="M35.5683 15.4131C35.3489 15.2172 35.122 15.0145 34.9056 14.8099C33.0964 13.1001 31.2878 11.3896 29.4797 9.67854C26.383 6.74941 23.2852 3.82188 20.1865 0.895926C19.0699 -0.157601 18.5839 -0.148314 17.4499 0.948954L16.648 1.72478C12.7047 5.53953 8.6272 9.48429 4.60293 13.35C3.74809 14.171 2.85436 14.9828 1.98998 15.767C1.57169 16.1464 1.15425 16.527 0.737668 16.9087C0.558075 17.0735 0.0114289 17.5765 0.48182 18.1173C0.796826 18.4795 1.21714 18.4575 1.73096 18.0521C2.06578 17.7876 2.40031 17.5128 2.72394 17.2462C2.93274 17.0742 3.14197 16.9032 3.35168 16.7326C3.44336 16.6577 3.53883 16.59 3.68379 16.4866L3.73128 16.4526C3.73128 16.7718 3.73341 17.0817 3.73493 17.3837C3.73887 18.21 3.7425 18.9906 3.72751 19.7663C3.69875 21.2416 3.66639 22.7168 3.63037 24.1922C3.5859 26.1167 3.53958 28.1068 3.50706 30.0643C3.48619 31.3075 3.47422 32.6282 3.57515 33.914C3.68409 35.3019 4.22165 35.8049 5.70574 35.9064C6.60719 35.9684 7.52378 36.0384 8.41023 36.1067C10.1636 36.2415 11.9767 36.3802 13.7637 36.4614C18.032 36.6552 22.3676 36.8023 26.6504 36.8987C26.8017 36.9019 26.9548 36.9038 27.1096 36.9038C28.3618 36.8943 29.6123 36.805 30.8529 36.6362C32.7128 36.3976 33.3863 35.7547 33.6244 33.9898C33.9232 31.7765 34.1246 29.4455 34.2401 26.8634C34.3422 24.5795 34.3803 22.3375 34.4209 19.9641C34.4361 19.0673 34.4529 18.1631 34.4705 17.2516C34.6283 17.3988 34.7646 17.526 34.9082 17.6487C35.4775 18.1359 36.0898 18.1778 36.5057 17.7581C36.5996 17.6662 36.6736 17.5566 36.7238 17.4359C36.7739 17.315 36.7987 17.1854 36.7968 17.0549C36.7746 16.6923 36.6081 16.3533 36.3336 16.1122C36.0838 15.8736 35.8217 15.6389 35.5683 15.4131ZM14.5528 22.3621L21.6863 21.6949L21.9101 35.0961L14.2741 34.8054L14.5528 22.3621ZM23.7972 23.6148C23.7953 22.9357 23.7583 22.2473 23.7227 21.5818C23.7138 21.4121 23.7049 21.2422 23.6962 21.0725C23.6721 20.5957 23.5396 20.2598 23.291 20.0455C23.0382 19.8275 22.6719 19.7418 22.1714 19.7866C19.2757 20.0399 16.6211 20.2564 14.0561 20.4481C12.9684 20.5295 12.6018 20.9206 12.6028 21.9984C12.6073 26.6037 12.6061 30.1365 12.5985 33.4535C12.5923 33.744 12.5711 34.034 12.535 34.3223C12.5238 34.4283 12.5121 34.5367 12.5014 34.6486L5.2924 34.2046C5.27938 34.0943 5.26516 33.9868 5.25095 33.8813C5.20655 33.6006 5.18126 33.3173 5.17529 33.0331C5.18255 31.7948 5.19723 30.5359 5.21147 29.3181C5.22826 27.8651 5.24566 26.3627 5.25078 24.885C5.2558 23.4929 5.252 22.0778 5.24851 20.7092C5.2443 19.0546 5.2399 17.3436 5.25048 15.661C5.24999 15.3589 5.3578 15.0665 5.55475 14.8356C8.80934 11.7416 12.1363 8.61409 15.354 5.58969L16.8555 4.17802C17.3361 3.72607 17.82 3.27775 18.3141 2.81966L18.9254 2.25252C19.3599 2.66477 19.7933 3.07487 20.2252 3.48293C21.2247 4.42784 22.2582 5.40518 23.2613 6.37122C24.5386 7.60154 25.8139 8.8336 27.0874 10.0675C28.7107 11.6379 30.389 13.2615 32.0461 14.8525C32.3868 15.18 32.5423 15.4419 32.447 15.9647C32.3905 16.3859 32.3917 16.8127 32.4512 17.2336C32.4823 17.5057 32.4976 17.7793 32.4966 18.0532L32.4802 18.6823C32.4144 21.22 32.3465 23.8439 32.2222 26.4212C32.1477 27.9604 32.0255 29.5244 31.9084 31.0367C31.8552 31.7187 31.8025 32.4009 31.7531 33.0828L31.7508 33.1138C31.7463 33.1774 31.7416 33.2412 31.7334 33.3044C31.5601 34.6602 31.4402 34.7818 30.1321 34.9308C28.0313 35.1713 25.9137 35.2365 23.8019 35.1255L23.8028 32.1467C23.804 29.3454 23.8051 26.449 23.7972 23.6148Z" fill="#009DE0"/>
</g>
</g>
<defs>
<clipPath id="clip0_64_2014">
<rect width="37" height="37" fill="white"/>
</clipPath>
</defs>
</svg>
