<svg width="37" height="55" viewBox="0 0 37 55" fill="none" xmlns="http://www.w3.org/2000/svg">
<path d="M7.57865 49.7754C7.55857 49.7754 7.53849 49.7745 7.51842 49.7725C0.85428 49.1542 1.00193 44.5317 1.09019 41.7694C1.10274 41.3821 1.11487 41.0177 1.10818 40.689L0.459836 7.57407C0.424281 5.75327 0.504592 3.70158 1.91296 2.39611C3.09713 1.29852 4.74853 1.16844 6.33801 1.1287C14.8434 0.921231 23.4547 1.13497 31.9329 1.76617C32.8201 1.83226 34.0357 1.92261 34.9889 2.60441C36.5521 3.72249 36.752 5.74658 36.7349 7.76774L36.4408 42.6599C36.4274 44.2364 36.3208 45.8703 35.2031 47.0038C34.0662 48.157 32.3056 48.2721 31.1403 48.3486L14.3729 49.4445C14.0194 49.4613 13.7128 49.1998 13.6898 48.8451C13.6668 48.4912 13.9349 48.1855 14.2892 48.1621L31.0566 47.0661C32.3412 46.9821 33.5551 46.8449 34.2879 46.102C35.0693 45.3093 35.1441 44.0164 35.1558 42.649L35.4499 7.75686C35.4641 6.08246 35.3273 4.42605 34.2415 3.64929C33.6308 3.21302 32.7917 3.11849 31.8376 3.0478C23.4016 2.41911 14.8347 2.20662 6.3698 2.41368C4.97022 2.44839 3.64258 2.54502 2.78634 3.33892C1.76782 4.28258 1.71302 5.93606 1.74481 7.54898L2.39315 40.6639C2.39985 41.0127 2.38772 41.3996 2.37475 41.8108C2.28189 44.7053 2.1769 47.9864 7.63721 48.4933C7.99066 48.526 8.25042 48.8388 8.21737 49.1923C8.18684 49.5252 7.90659 49.7754 7.57865 49.7754Z" fill="#E2121B"/>
<path d="M8.49382 19.6458C7.99439 19.6458 6.82486 19.6458 6.18907 18.8013C5.92471 18.4487 5.82474 18.0492 5.75614 17.6694C5.54365 16.4999 5.22324 14.7314 6.17401 13.6853C6.47852 13.3502 6.85749 12.9336 15.7038 12.9336C19.8783 12.9336 24.6158 13.029 27.7509 13.0917C28.4105 13.1051 29.5144 13.1268 30.2598 13.8409C31.0294 14.5783 31.0767 15.7236 31.1051 16.4083C31.1298 17.0136 31.1817 18.273 30.2945 18.9707C29.7064 19.4329 28.9497 19.4405 28.449 19.4455L8.49382 19.6458ZM7.07876 14.6051C6.61697 15.2149 6.86836 16.6015 7.0202 17.4406C7.06078 17.6648 7.11264 17.8911 7.21638 18.0292C7.43765 18.3232 8.01531 18.3609 8.49382 18.3609L8.60007 18.3604L28.4365 18.1605C28.8849 18.1559 29.2747 18.1379 29.5006 17.9601C29.8268 17.7037 29.8457 17.0583 29.821 16.461C29.7925 15.7692 29.7365 15.1191 29.3709 14.7686C29.0175 14.4302 28.3641 14.3892 27.725 14.3767C24.5953 14.3135 19.8654 14.2186 15.7038 14.2186C8.96607 14.2186 7.42552 14.475 7.07876 14.6051Z" fill="#E2121B"/>
<path d="M8.51303 53.9866C8.37918 53.9866 8.2424 53.9628 8.10227 53.9105C7.32301 53.6181 7.26236 52.4791 7.3594 48.1156C7.38491 46.9548 7.40917 45.8589 7.38199 45.0495C7.36985 44.6948 7.6476 44.3974 8.0023 44.3857C8.35534 44.3757 8.65399 44.6513 8.66612 45.006C8.69457 45.8514 8.66989 46.9649 8.64395 48.144C8.61091 49.631 8.56323 51.7814 8.70126 52.6101C8.91333 52.4323 9.24921 52.0592 9.45083 51.8346C9.99335 51.2306 10.4581 50.7127 11.0755 50.7592C11.6 50.8018 11.9764 51.2791 12.4529 51.8827C12.557 52.0144 12.698 52.193 12.8285 52.3432C13.0611 51.136 13.0652 47.8562 12.8088 44.8325C12.7791 44.4786 13.0414 44.1678 13.3948 44.1377C13.7433 44.1088 14.0591 44.3694 14.0896 44.7237C14.3582 47.8968 14.6196 53.2977 13.3501 53.8227C12.5972 54.1347 12.0099 53.3952 11.4444 52.6791C11.3114 52.5101 11.1106 52.2562 10.9684 52.1102C10.8082 52.2466 10.5739 52.5072 10.4062 52.6937C9.87957 53.2793 9.2442 53.9866 8.51303 53.9866Z" fill="#E2121B"/>
<path d="M6.22516 45.1357C5.63956 45.1357 5.15979 45.1307 4.80843 45.1194C4.45372 45.1081 4.17556 44.8115 4.18686 44.4568C4.19773 44.1017 4.49764 43.8152 4.84942 43.8353C6.79487 43.8976 12.8563 43.7654 18.7181 43.6374C24.5967 43.5094 30.6753 43.3764 32.6554 43.44C33.0101 43.4513 33.2883 43.7478 33.277 44.1026C33.2661 44.4573 32.9557 44.7279 32.6144 44.7241C30.6698 44.6631 24.608 44.7944 18.7457 44.922C13.9103 45.0274 8.93901 45.1357 6.22516 45.1357Z" fill="#E2121B"/>
<path d="M1.84848 43.7963C1.75521 43.7963 1.66026 43.7758 1.57032 43.7327C1.25075 43.5788 1.11607 43.1948 1.26999 42.8752C2.9285 39.4277 10.7877 39.6942 17.7212 39.9288C19.2266 39.9799 20.6484 40.028 21.8928 40.0309C23.1899 40.0321 24.5413 40.0033 25.9012 39.9719C29.0814 39.8979 32.3708 39.823 35.3871 40.1781C35.7393 40.2195 35.9915 40.5387 35.9497 40.8913C35.9087 41.2435 35.5908 41.4999 35.2365 41.4539C32.3119 41.1105 29.0668 41.1841 25.9309 41.2565C24.5598 41.2883 23.2062 41.315 21.8894 41.3159C20.6249 41.3125 19.1931 41.2644 17.6777 41.213C11.7891 41.0139 3.72324 40.7407 2.42781 43.4324C2.31738 43.6624 2.08774 43.7963 1.84848 43.7963Z" fill="#E2121B"/>
<path d="M1.29892 8.37553C1.07096 8.37553 0.850522 8.25422 0.73382 8.03964C0.564414 7.72802 0.679861 7.33776 0.991903 7.16835C1.383 6.95586 1.93807 6.67143 2.49271 6.38741C3.0323 6.11093 3.57147 5.83527 3.95211 5.62864C4.26206 5.45965 4.654 5.57468 4.82299 5.88714C4.99239 6.19877 4.87653 6.58903 4.56449 6.75801C4.17715 6.96841 3.62836 7.2495 3.07873 7.53101C2.53412 7.81 1.9891 8.089 1.60511 8.29773C1.50765 8.35043 1.40266 8.37553 1.29892 8.37553Z" fill="#E2121B"/>
<path d="M1.47721 11.3009C1.27978 11.3009 1.08528 11.2101 0.959374 11.039C0.748976 10.7534 0.810046 10.3514 1.09615 10.141C1.9482 9.51397 2.9408 9.05009 3.96769 8.79954C4.31027 8.71295 4.65995 8.9267 4.74403 9.27136C4.8281 9.61603 4.61687 9.96363 4.2722 10.0477C3.40928 10.2585 2.57396 10.6488 1.85743 11.1758C1.74282 11.2603 1.60939 11.3009 1.47721 11.3009Z" fill="#E2121B"/>
<path d="M1.47387 14.508C1.20533 14.508 0.954775 14.3382 0.864844 14.0697C0.751906 13.733 0.933442 13.369 1.26974 13.2565L3.87023 12.3848C4.20653 12.2702 4.57086 12.453 4.68338 12.7897C4.79632 13.126 4.6152 13.4903 4.27848 13.6029L1.67799 14.4746C1.61023 14.4976 1.54121 14.508 1.47387 14.508Z" fill="#E2121B"/>
<path d="M1.56256 18.2668C1.3028 18.2668 1.0581 18.1083 0.96106 17.8502C0.83641 17.5181 1.00456 17.1479 1.33668 17.0228L4.03128 16.011C4.3634 15.8872 4.734 16.0545 4.85865 16.3866C4.9833 16.7188 4.81515 17.0894 4.48303 17.214L1.78843 18.2258C1.71397 18.2539 1.63785 18.2668 1.56256 18.2668Z" fill="#E2121B"/>
<path d="M1.6351 22.123C1.43349 22.123 1.23439 22.0281 1.10932 21.8503C0.905194 21.5604 0.97463 21.1597 1.26492 20.9552C2.27885 20.2412 3.39274 19.6903 4.57482 19.3184C4.91489 19.213 5.27419 19.4004 5.38044 19.7384C5.4871 20.0768 5.29887 20.4377 4.96048 20.544C3.90472 20.8761 2.91046 21.368 2.00445 22.0059C1.89235 22.085 1.7631 22.123 1.6351 22.123Z" fill="#E2121B"/>
<path d="M1.90881 25.1099C1.70678 25.1099 1.49095 25.0697 1.28348 24.9518C0.974782 24.7769 0.866027 24.385 1.04129 24.0763C1.21362 23.7722 1.59761 23.6635 1.90212 23.8258C1.94311 23.8304 2.03095 23.8157 2.24428 23.7438L4.71133 22.908C5.05056 22.7951 5.41238 22.9745 5.52615 23.3104C5.63993 23.6467 5.45965 24.0115 5.12376 24.1253L2.65629 24.961C2.48981 25.017 2.215 25.1099 1.90881 25.1099Z" fill="#E2121B"/>
<path d="M1.65482 28.2202C1.40719 28.2202 1.17086 28.0763 1.06545 27.8345C0.923651 27.5095 1.07214 27.131 1.39757 26.9888L4.43014 25.6649C4.75515 25.5231 5.13412 25.6712 5.27592 25.997C5.41772 26.322 5.26923 26.7006 4.9438 26.8428L1.91122 28.1666C1.82757 28.203 1.74056 28.2202 1.65482 28.2202Z" fill="#E2121B"/>
<path d="M1.71421 32.1242C1.47453 32.1242 1.24447 31.9895 1.13405 31.759C0.980954 31.4386 1.11648 31.055 1.43647 30.902L4.73591 29.325C5.05464 29.1707 5.43905 29.3074 5.59256 29.6279C5.74565 29.9478 5.61013 30.3314 5.28972 30.4845L1.99112 32.0614C1.9016 32.1041 1.80707 32.1242 1.71421 32.1242Z" fill="#E2121B"/>
<path d="M1.8443 35.4559C1.59584 35.4559 1.35951 35.3116 1.25452 35.0694C1.11314 34.7439 1.26247 34.3654 1.58789 34.224L5.15253 32.6776C5.47754 32.5367 5.85609 32.686 5.99747 33.0114C6.13885 33.3368 5.98952 33.7154 5.66367 33.8563L2.09988 35.4027C2.01664 35.4387 1.92963 35.4559 1.8443 35.4559Z" fill="#E2121B"/>
<path d="M1.82681 38.9456C1.54238 38.9456 1.2822 38.7553 1.20607 38.4671C1.1153 38.1241 1.32027 37.7728 1.66326 37.682C2.90808 37.3532 4.08388 36.8249 5.15762 36.1122C5.4521 35.916 5.85156 35.9963 6.04816 36.2924C6.24433 36.5877 6.1636 36.9868 5.86787 37.183C4.67701 37.9735 3.3728 38.5595 1.9912 38.9243C1.9364 38.9389 1.88119 38.9456 1.82681 38.9456Z" fill="#E2121B"/>
</svg>
