<svg width="37" height="35" viewBox="0 0 37 35" fill="none" xmlns="http://www.w3.org/2000/svg">
<g clip-path="url(#clip0_64_2023)">
<mask id="mask0_64_2023" style="mask-type:luminance" maskUnits="userSpaceOnUse" x="0" y="0" width="37" height="35">
<path d="M36.9474 0H0.183105V34.1538H36.9474V0Z" fill="white"/>
</mask>
<g mask="url(#mask0_64_2023)">
<path d="M9.10088 2.69336C9.10088 2.12921 9.08882 1.6121 9.10392 1.0956C9.12254 0.458662 9.29293 0.180162 9.64165 0.157393C9.99039 0.134624 10.1834 0.378396 10.2824 1.02282C10.3586 1.51281 10.3974 2.00801 10.4654 2.61589L26.2617 2.48262C26.294 2.15786 26.3171 1.86587 26.3534 1.57556C26.3909 1.27987 26.4283 0.983134 26.4906 0.691779C26.5662 0.338406 26.7816 0.108318 27.1709 0.105022C27.594 0.101277 27.8367 0.348881 27.9043 0.729666C27.9826 1.17067 28.009 1.62064 28.0568 2.06673C28.07 2.18747 28.0811 2.30849 28.1002 2.50113C28.8458 2.53902 29.5712 2.59642 30.2971 2.60915C33.5015 2.66519 35.3074 4.60009 35.9491 7.32222C36.2722 8.69272 36.3424 10.1317 36.4172 11.5452C36.5913 14.8316 36.7181 18.1213 36.8258 21.4098C36.8868 23.2523 36.8725 25.0982 36.8883 26.9425C36.9208 30.6713 34.0393 32.6665 31.5063 33.3424C30.6263 33.585 29.7197 33.7232 28.8062 33.7543C23.4742 33.8824 18.1409 34.0255 12.808 34.029C9.96369 34.031 7.13819 33.5875 4.35583 32.9963C2.22014 32.5428 0.574283 30.5972 0.319221 28.3465C0.240858 27.6027 0.208507 26.8548 0.22235 26.1071C0.25042 23.5391 0.329906 20.9716 0.341194 18.4036C0.354465 15.4122 0.324559 12.4204 0.295423 9.42896C0.28749 8.60853 0.233492 7.81115 0.536759 7.00104C1.3828 4.74151 3.04101 3.49312 5.40157 3.09915C6.35025 2.94065 7.31803 2.89231 8.27696 2.79195C8.52592 2.76589 8.77168 2.73289 9.10088 2.69336ZM34.4604 11.3085C29.0377 11.4828 23.7363 11.668 18.4339 11.8194C13.1098 11.9721 7.7839 12.0922 2.4192 12.2277C2.41371 12.291 2.39479 12.4104 2.39464 12.5298C2.38955 16.5198 2.38633 20.5098 2.38489 24.4998C2.38489 25.5713 2.37926 26.6439 2.42915 27.7137C2.46122 28.4674 2.75366 29.1877 3.25828 29.7565C3.76291 30.3251 4.44965 30.7082 5.20551 30.8425C8.287 31.3553 11.3664 31.8311 14.5121 31.7478C17.3811 31.6717 20.2528 31.6984 23.1226 31.6412C25.4067 31.5962 27.6903 31.5087 29.9721 31.4072C30.9673 31.3564 31.9286 31.035 32.7485 30.4783C33.8552 29.7463 34.599 28.7877 34.623 27.4075C34.6419 26.3365 34.7123 25.2655 34.6954 24.1947C34.631 20.1311 34.5398 16.0678 34.4599 12.0045C34.4562 11.7591 34.4609 11.5138 34.4609 11.3085H34.4604ZM2.21526 10.3684C12.9539 9.80512 23.5224 9.43831 34.1566 9.18963C34.0956 8.65861 34.0873 8.15602 33.9735 7.6777C33.6214 6.20415 32.9625 4.94274 31.3265 4.50504C30.2884 4.22731 29.2238 4.30755 28.1228 4.33226C28.0983 4.56986 28.0825 4.76396 28.0568 4.95677C28.0356 5.1547 28.0031 5.35136 27.9597 5.54581C27.8046 6.16385 27.487 6.44456 26.9972 6.41115C26.5042 6.37789 26.2224 6.05332 26.1778 5.41713C26.1524 5.05402 26.1733 4.68776 26.1733 4.34099H10.5853C10.5853 4.69524 10.5922 4.96402 10.5836 5.23215C10.5834 5.60519 10.563 5.9779 10.5226 6.34884C10.5086 6.52628 10.4265 6.69192 10.2931 6.81241C10.1597 6.93289 9.98476 6.99926 9.80351 6.9982C9.37636 7.02338 9.13381 6.75855 9.03923 6.39813C8.9838 6.10505 8.95984 5.80706 8.96768 5.50907C8.95394 5.17337 8.95397 4.83707 8.9465 4.40761C7.79184 4.50333 6.73559 4.48775 5.72769 4.69775C4.05133 5.04723 2.6729 5.86397 2.36309 7.69884C2.22045 8.54685 2.26164 9.42492 2.21526 10.3684Z" fill="#EF8517"/>
<path d="M9.56343 28.3897C9.3395 28.3994 8.90931 28.4347 8.47912 28.4331C7.54657 28.431 6.97788 28.0168 6.80443 27.13C6.59315 26.1016 6.63972 25.0387 6.94017 24.0321C6.99617 23.8143 7.11094 23.6151 7.27235 23.4561C7.43378 23.2969 7.63589 23.1833 7.85747 23.1273C9.07578 22.7791 10.3477 22.648 11.6131 22.7398C12.291 22.786 12.8154 23.1568 12.9708 23.8544C13.206 24.909 13.2692 25.9747 12.9767 27.0303C12.7313 27.9155 12.1507 28.353 11.2133 28.387C10.733 28.404 10.2514 28.3897 9.56343 28.3897ZM10.6831 24.8218H8.70213L8.78603 26.1166H10.6831V24.8218Z" fill="#EF8517"/>
<path d="M21.8146 25.0323C21.8146 25.2862 21.8181 25.436 21.8146 25.5855C21.7725 27.1358 21.2645 27.7388 19.7019 28.006C18.9035 28.1426 18.0943 28.2329 17.2863 28.2998C16.4101 28.3725 15.8218 27.9894 15.6501 27.1824C15.4327 26.1573 15.3053 25.1173 15.5338 24.0682C15.6946 23.3309 16.1385 22.8399 16.8878 22.7303C17.89 22.5769 18.9003 22.4804 19.9138 22.4416C21.0454 22.4064 21.5374 22.8564 21.7139 23.9456C21.776 24.3382 21.7877 24.7388 21.8146 25.0323ZM19.5434 24.5623H17.3585C17.4317 25.1214 17.4973 25.6206 17.565 26.1377C18.0565 26.0906 18.4583 26.0556 18.8594 26.0131C19.5855 25.9363 19.6639 25.8483 19.6295 25.1226C19.6209 24.9536 19.5784 24.7866 19.5428 24.5623H19.5434Z" fill="#EF8517"/>
<path d="M27.1407 28.1346C26.6597 28.1561 26.178 28.1533 25.6972 28.1261C24.826 28.0361 24.3181 27.5845 24.2658 26.7479C24.2038 25.8288 24.2153 24.9064 24.3 23.9891C24.3916 23.051 24.8248 22.6683 25.784 22.5943C26.7179 22.5221 27.6594 22.5016 28.5964 22.5206C29.5855 22.5408 30.5171 23.1648 30.4438 24.4419C30.408 25.0633 30.3969 25.6885 30.3154 26.3046C30.1594 27.4822 29.5714 27.9989 28.3563 28.0887C27.9514 28.1187 27.5461 28.1395 27.1409 28.1644L27.1407 28.1346ZM26.2018 24.332C26.2322 24.9694 26.2553 25.4529 26.2779 25.9188H28.0537C28.0994 25.4369 28.1369 25.025 28.1817 24.5455L26.2018 24.332Z" fill="#EF8517"/>
<path d="M27.0622 20.0481C26.6321 20.0719 26.2018 20.1187 25.7719 20.1146C24.7119 20.1047 24.1597 19.6131 24.1069 18.5839C24.0659 17.7886 24.0659 16.9919 24.1069 16.1968C24.159 15.2014 24.5241 14.7752 25.5268 14.6723C26.6347 14.5573 27.7485 14.5098 28.8623 14.5303C29.8961 14.5508 30.4469 15.1213 30.4415 16.1568C30.4302 17.0009 30.3418 17.8423 30.1773 18.6709C30.0123 19.5336 29.4835 19.9346 28.5806 19.9969C28.0772 20.0318 27.5682 20.0032 27.0615 20.0032L27.0622 20.0481ZM25.9942 18.0298H28.1673C28.2262 17.5153 28.2783 17.0587 28.3445 16.4768L25.9942 16.3751V18.0298Z" fill="#EF8517"/>
<path d="M14.9248 17.4025C14.9756 16.9082 15.0076 16.3851 15.0882 15.8686C15.1797 15.2843 15.4765 14.8332 16.1103 14.7067C17.2315 14.4831 18.3589 14.2932 19.5103 14.4276C20.5158 14.5448 21.0613 14.965 21.2007 15.9496C21.2938 16.6866 21.2814 17.4329 21.1643 18.1666C21.0468 18.9605 20.474 19.4375 19.6609 19.5419C18.6797 19.6677 17.693 19.7678 16.7057 19.8274C15.7514 19.8852 15.1736 19.4071 15.0087 18.4749C14.9486 18.1335 14.9526 17.7809 14.9248 17.4025ZM19.0454 16.4176L16.7693 16.2697C16.8049 16.8256 16.8322 17.2542 16.8636 17.7448L19.045 17.5295L19.0454 16.4176Z" fill="#EF8517"/>
</g>
</g>
<defs>
<clipPath id="clip0_64_2023">
<rect width="37" height="34.1538" fill="white"/>
</clipPath>
</defs>
</svg>
