<svg width="37" height="41" viewBox="0 0 37 41" fill="none" xmlns="http://www.w3.org/2000/svg">
<g clip-path="url(#clip0_64_1993)">
<path d="M16.6452 40.362C14.6984 40.362 12.7263 40.3116 10.784 40.2124C8.96409 40.1192 7.06934 39.9284 5.65762 38.7312C3.99805 37.3233 3.6101 35.0514 3.43767 32.8058C3.0941 28.3164 3.12516 23.7662 3.52896 19.281C3.7185 17.1809 4.01897 14.7226 4.81579 12.4132C5.66903 9.93973 7.01926 7.90329 8.71941 6.52391C11.037 4.6431 14.1995 3.729 18.3878 3.729C19.0825 3.729 19.7951 3.75309 20.5665 3.80254C23.0071 3.95911 25.7944 4.33692 27.97 5.9499C31.0742 8.25163 32.032 12.3438 32.5202 15.6516C33.4602 22.0243 33.4507 28.4857 32.4916 34.8558C32.2983 36.1433 32.0054 37.5988 30.9721 38.5743C29.9363 39.5528 28.4879 39.7588 27.0926 39.8862C23.6346 40.2019 20.1196 40.362 16.6452 40.362ZM18.3878 4.70269C14.4322 4.70269 11.4706 5.54579 9.33303 7.28016C7.77361 8.54449 6.52988 10.4294 5.73623 12.7308C4.97364 14.9416 4.68267 17.3267 4.49884 19.3685C4.09948 23.7998 4.06905 28.2958 4.40882 32.7316C4.56477 34.7665 4.9001 36.8118 6.28773 37.9889C7.4668 38.9892 9.18026 39.1553 10.8335 39.24C16.1983 39.5148 21.655 39.4051 27.0039 38.9163C28.2292 38.8048 29.4939 38.6317 30.304 37.8663C31.1116 37.104 31.3519 35.8894 31.5294 34.711C32.4732 28.4359 32.4828 22.0712 31.5566 15.7936C31.0964 12.6719 30.207 8.82056 27.3906 6.73215C25.4178 5.26972 22.8023 4.9217 20.5044 4.77432C19.7539 4.72614 19.0616 4.70269 18.3878 4.70269Z" fill="#7BB92F"/>
<path d="M28.2888 15.1523C28.0264 15.1523 27.8102 14.9441 27.802 14.6807C27.7202 12.0478 25.975 9.47886 23.5573 8.43322C21.9827 7.75177 20.2134 7.67126 18.6908 7.67729C15.8496 7.69345 13.8338 8.08743 12.1539 8.9543C10.0709 10.0297 8.64207 11.9856 8.51276 13.9368C8.49564 14.205 8.27124 14.4075 7.99485 14.3907C7.72671 14.373 7.52386 14.1409 7.54161 13.8728C7.69438 11.553 9.2912 9.33686 11.7077 8.08901C13.5301 7.14829 15.6823 6.72072 18.6857 6.7036C20.3174 6.69536 22.2039 6.78664 23.944 7.53941C26.7395 8.74859 28.6812 11.6063 28.7757 14.6503C28.7839 14.9191 28.5728 15.1438 28.304 15.152C28.299 15.1523 28.2939 15.1523 28.2888 15.1523Z" fill="#7BB92F"/>
<path d="M11.6991 36.5917C10.3128 36.5917 8.92198 36.4431 8.13847 35.3642C7.61739 34.6472 7.57302 33.7204 7.54069 33.0434L7.1109 24.0296C7.05448 22.8416 6.98412 21.3633 7.69346 20.1288C8.39266 18.9126 9.67887 18.2372 10.721 17.7843C14.4687 16.1574 18.849 15.7098 22.8483 16.5475C25.4474 17.0917 27.254 18.1523 28.2175 19.6996C29.2983 21.4356 29.2102 23.5845 29.1392 25.3113L28.7804 34.1284C28.7633 34.5629 28.7392 35.1588 28.4077 35.6485C27.7865 36.5676 26.5091 36.5699 25.8955 36.5708L11.6991 36.5917ZM18.7571 17.1C16.1295 17.1 13.4849 17.6455 11.109 18.6775C10.2044 19.0705 9.0944 19.6458 8.53783 20.6141C7.97048 21.6014 8.03324 22.9221 8.08332 23.9833L8.51311 32.9971C8.541 33.5819 8.57586 34.3103 8.92578 34.7917C9.45319 35.5179 10.5708 35.618 11.6991 35.618V36.1049L11.7289 35.618L25.8943 35.5971C26.608 35.5959 27.3091 35.5353 27.6014 35.1033C27.7643 34.8618 27.7903 34.516 27.808 34.0887L28.1668 25.2717C28.2467 23.3151 28.2435 21.5839 27.3909 20.2144C26.5732 18.9012 24.9776 17.9881 22.6493 17.5003C21.3802 17.2347 20.0712 17.1 18.7571 17.1Z" fill="#7BB92F"/>
<path d="M23.6375 22.6937C23.6356 22.6937 23.6337 22.6937 23.6318 22.6937L12.8142 22.565C12.5454 22.5618 12.3299 22.3412 12.333 22.0724C12.3362 21.8056 12.5536 21.5913 12.8199 21.5913C12.8218 21.5913 12.8237 21.5913 12.8256 21.5913L23.6432 21.72C23.912 21.7232 24.1276 21.9438 24.1244 22.2125C24.1212 22.4794 23.9038 22.6937 23.6375 22.6937Z" fill="#7BB92F"/>
<path d="M22.0273 24.6664C21.7642 24.6664 21.5481 24.4573 21.5405 24.1932L21.4948 22.5701C21.4872 22.3013 21.6989 22.0772 21.9677 22.07C22.26 22.049 22.4609 22.2744 22.4685 22.5428L22.5142 24.166C22.5218 24.4347 22.31 24.6588 22.0413 24.6661C22.0362 24.6664 22.0317 24.6664 22.0273 24.6664Z" fill="#7BB92F"/>
<path d="M33.373 35.0271C32.9394 35.0271 32.514 34.9789 32.0988 34.932C31.8313 34.9019 31.6392 34.661 31.6697 34.3938C31.6995 34.126 31.9442 33.9323 32.2079 33.9647C32.7765 34.0287 33.3647 34.0943 33.9099 34.0186C34.4665 33.9409 34.921 33.7143 35.1898 33.3805C35.6335 32.8303 35.617 31.9945 35.5587 31.1137L35.3837 28.4839C35.3223 27.5606 35.2582 26.6056 34.8551 25.8034C34.5286 25.1543 33.8129 24.4947 33.0079 24.5657C32.7448 24.5898 32.5026 24.3942 32.4773 24.1267C32.4526 23.8592 32.6491 23.6215 32.9166 23.5965C34.1863 23.4798 35.2386 24.3993 35.7248 25.366C36.2167 26.3441 36.2902 27.4465 36.3549 28.4192L36.5299 31.049C36.5989 32.0867 36.6116 33.1685 35.9479 33.9916C35.5232 34.519 34.8468 34.8708 34.0449 34.9827C33.8186 35.0144 33.5949 35.0271 33.373 35.0271Z" fill="#7BB92F"/>
<path d="M3.09875 35.0808C2.98782 35.0808 2.87562 35.0716 2.76215 35.0529C2.11746 34.948 1.50257 34.5619 1.11715 34.0209C0.501627 33.154 0.402104 32.0659 0.322231 31.1918C0.194815 29.7883 0.0629623 28.3376 0.378649 26.8996C0.742513 25.24 1.72127 23.8961 2.99606 23.3047C3.23568 23.1912 3.52854 23.2964 3.64265 23.5414C3.75548 23.7852 3.64962 24.0746 3.40556 24.1877C2.40526 24.652 1.62872 25.744 1.32951 27.1081C1.04616 28.3994 1.17104 29.774 1.29211 31.1033C1.36501 31.9005 1.44742 32.8041 1.91081 33.4564C2.14092 33.7803 2.53711 34.0298 2.91872 34.0922C3.10002 34.1226 3.36563 34.123 3.59193 33.9578C3.81063 33.7981 4.11491 33.8478 4.27212 34.065C4.43059 34.2824 4.38242 34.587 4.16499 34.7451C3.86198 34.9657 3.49178 35.0808 3.09875 35.0808Z" fill="#7BB92F"/>
<path d="M13.8716 4.92901C13.658 4.92901 13.4627 4.78797 13.4025 4.57275C12.9721 3.02633 14.0345 1.45773 15.3106 0.834593C16.425 0.290065 17.8532 0.224772 19.4436 0.645688C20.5086 0.928094 21.3035 1.33887 21.8741 1.90146C22.6804 2.69765 22.9587 3.55882 22.7007 4.46119C22.6271 4.71887 22.3628 4.87069 22.0991 4.79557C21.8405 4.72172 21.6909 4.45231 21.765 4.19368C21.8633 3.8482 21.9115 3.3062 21.1901 2.59464C20.7375 2.14837 20.1029 1.82824 19.1939 1.58704C18.2462 1.3357 16.8763 1.15345 15.7378 1.70939C14.8396 2.14837 14.0503 3.26785 14.3407 4.31158C14.4129 4.57054 14.2614 4.839 14.0022 4.91126C13.9584 4.92331 13.9147 4.92901 13.8716 4.92901Z" fill="#7BB92F"/>
<path d="M2.63618 32.4971C2.43523 32.4971 2.24696 32.3716 2.1766 32.1709C1.64665 30.6546 1.50592 29.0153 1.76963 27.4299C1.814 27.1643 2.06249 26.9846 2.33 27.0296C2.59498 27.0737 2.77437 27.3244 2.73063 27.5897C2.49355 29.0144 2.6197 30.4873 3.09577 31.8495C3.18451 32.1034 3.05076 32.3811 2.79656 32.4698C2.74395 32.4885 2.68943 32.4971 2.63618 32.4971Z" fill="#7BB92F"/>
<path d="M34.0517 32.73C34.0314 32.73 34.0111 32.7288 33.9902 32.7262C33.724 32.693 33.5345 32.4495 33.568 32.1827C33.7969 30.3573 33.7779 28.5092 33.511 26.6895C33.4723 26.4233 33.6562 26.1761 33.9224 26.1371C34.1836 26.099 34.4359 26.2822 34.4745 26.5482C34.7535 28.455 34.7737 30.3912 34.5341 32.3037C34.5031 32.55 34.2939 32.73 34.0517 32.73Z" fill="#7BB92F"/>
<path d="M9.79936 36.1085C9.67321 36.1085 9.54769 36.06 9.45261 35.9633C9.2637 35.7716 9.26624 35.4632 9.45768 35.2746C10.0155 34.7259 10.4935 34.1038 10.8789 33.4261C11.012 33.1928 11.3093 33.1101 11.5432 33.2435C11.7765 33.3763 11.8583 33.6737 11.7258 33.9072C11.2954 34.6632 10.7623 35.3567 10.141 35.9687C10.0459 36.0619 9.92297 36.1085 9.79936 36.1085Z" fill="#7BB92F"/>
<path d="M12.6505 36.4241C12.5225 36.4241 12.3951 36.3741 12.2993 36.2748C12.113 36.0809 12.1193 35.7728 12.3133 35.5864C12.8172 35.1015 13.2324 34.5062 13.5145 33.8644C13.6223 33.6178 13.9101 33.5069 14.1561 33.6147C14.402 33.7227 14.5142 34.0099 14.4058 34.2562C14.0736 35.0131 13.583 35.7161 12.9878 36.2882C12.8933 36.3791 12.7722 36.4241 12.6505 36.4241Z" fill="#7BB92F"/>
<path d="M15.5976 36.4724C15.4778 36.4724 15.358 36.4287 15.2642 36.3402C15.0683 36.1561 15.0588 35.848 15.2432 35.6521C15.8676 34.9881 16.4363 34.2642 16.9332 33.5003C17.0803 33.2756 17.382 33.2103 17.6071 33.358C17.8328 33.5048 17.8961 33.8062 17.7497 34.0315C17.2204 34.8436 16.6163 35.6132 15.9519 36.319C15.8562 36.4211 15.7269 36.4724 15.5976 36.4724Z" fill="#7BB92F"/>
<path d="M18.5873 36.4387C18.4434 36.4387 18.3008 36.3753 18.2044 36.2536C18.0377 36.0425 18.0738 35.7363 18.2849 35.5696C18.8903 35.0919 19.3676 34.4298 19.6294 33.7053C19.7207 33.4517 20.0009 33.3217 20.2526 33.4124C20.5055 33.5037 20.6361 33.7829 20.5448 34.0355C20.2177 34.942 19.6453 35.7366 18.8884 36.3341C18.799 36.4044 18.6925 36.4387 18.5873 36.4387Z" fill="#7BB92F"/>
<path d="M22.0635 36.3436C21.9361 36.3436 21.8081 36.2936 21.713 36.1944C21.526 36.0004 21.5323 35.6923 21.7263 35.5059C22.2302 35.021 22.5941 34.3785 22.7513 33.6964C22.8109 33.4343 23.0721 33.2689 23.3345 33.3313C23.5969 33.3915 23.7605 33.653 23.6996 33.9151C23.5012 34.7792 23.0397 35.5934 22.4008 36.2077C22.3063 36.2986 22.1852 36.3436 22.0635 36.3436Z" fill="#7BB92F"/>
<path d="M25.014 36.3399C24.924 36.3399 24.8321 36.3149 24.7503 36.262C24.5246 36.1162 24.46 35.8151 24.6058 35.5891C24.9696 35.0255 25.2714 34.4217 25.5021 33.7945C25.5959 33.5425 25.8749 33.4135 26.1278 33.506C26.3801 33.5989 26.5088 33.8788 26.4162 34.1311C26.1601 34.8255 25.8261 35.4937 25.4235 36.1171C25.3303 36.2613 25.1738 36.3399 25.014 36.3399Z" fill="#7BB92F"/>
</g>
<defs>
<clipPath id="clip0_64_1993">
<rect width="37" height="40.8947" fill="white"/>
</clipPath>
</defs>
</svg>
