<svg width="110" height="79" viewBox="0 0 110 79" fill="none" xmlns="http://www.w3.org/2000/svg">
<g clip-path="url(#clip0_156_5)">
<path fill-rule="evenodd" clip-rule="evenodd" d="M109.499 3.57701C108.656 1.76801 105.137 2.63301 103.452 1.66701C101.72 1.31501 101.776 2.74901 100.27 2.62301C99.995 1.83501 98.052 2.71601 97.723 1.98701H94.54C94.01 1.45201 92.668 1.73301 91.677 1.66701C90.812 1.47101 89.148 2.07201 88.809 1.35001C76.877 0.893011 63.489 0.831011 51.566 1.35001C44.066 1.50601 36.277 3.21401 28.011 3.26001C19.878 3.30301 11.518 3.04701 3.822 4.21301C2.372 5.31201 1.929 7.41801 0.638 8.67001C0.18 11.183 0.492 14.468 0 16.946C1.444 32.057 2.206 47.845 3.502 63.1C3.543 64.438 4.734 64.625 4.774 65.965C5 68.184 5.501 70.122 6.049 72.013C7.008 72.327 7.471 73.138 8.916 72.968C9.377 72.773 8.881 72.583 8.916 72.968C8.642 73.225 8.727 73.839 8.277 73.924C8.166 76.9 10.772 77.158 13.052 77.744C15.645 77.908 18.099 78.212 21.011 78.062C23.442 78.492 26.125 78.674 28.65 79.017H57.297C64.047 78.021 71.548 77.777 78.305 76.788C86.089 76.827 92.452 75.444 99.633 74.877C101.151 74.527 100.071 76.776 101.225 76.788C101.464 77.609 102.241 77.894 103.452 77.744C104.839 77.431 105.413 76.307 105.68 74.877C106.034 73.533 106.047 71.85 105.998 70.104V59.917C106.433 53.562 106.899 47.238 106.952 40.501C107.623 34.383 107.286 27.252 107.908 21.084C108.039 17.821 108.535 14.923 108.862 11.852C108.625 9.91601 109.386 8.98201 109.499 7.39601C109.772 5.97901 110.475 4.57401 109.499 3.57701ZM11.782 9.62401H33.424C41.739 8.70701 50.076 7.81501 59.525 8.03301C60.073 8.10001 60.353 7.48901 60.481 8.03301C60.814 8.36401 62.064 7.70401 62.072 7.71601C62.084 7.73101 62.064 8.03301 62.072 8.03301C63.042 7.97101 63.323 7.86701 63.984 8.03301C64.153 8.07501 64.445 8.04901 64.619 8.03301C65.443 7.95001 65.598 8.02901 66.842 8.03301C66.842 8.03301 66.907 7.66101 67.166 7.71601C67.19 7.71801 67.258 8.00401 67.486 8.03301C68.129 8.11801 69.294 8.01801 70.351 8.03301C70.264 8.03101 70.51 7.51601 70.669 7.71601C71.064 8.21101 72.321 8.00101 73.536 8.03301C75.572 7.89101 75.853 7.97601 77.99 8.03301C85.075 8.05701 91.917 8.32701 98.042 9.30601C99.387 9.25201 98.039 9.79501 98.042 10.263C97.618 10.58 97.085 10.787 96.77 11.216C96.038 11.862 95.152 12.359 94.543 13.126C92.669 14.011 91.118 15.221 89.451 16.31C86.004 18.489 82.629 20.737 79.581 23.313C78.734 23.039 79.013 23.913 78.308 23.95C77.774 23.978 77.664 24.871 77.036 24.905C76.775 24.918 75.834 25.586 75.443 25.86C75.135 26.075 74.595 26.37 74.489 26.815C72.437 27.52 71.324 29.165 69.395 29.999C66.408 32.632 63.057 34.908 60.166 37.639C58.107 36.407 56.141 35.086 54.433 33.499C52.226 32.738 50.661 31.334 48.704 30.316C47.079 29.077 45.108 28.184 43.613 26.816C39.555 25.145 36.115 22.854 32.155 21.087C24.217 17.566 16.976 13.348 9.237 9.62701C9.742 8.73201 10.665 10.072 11.782 9.62401ZM5.732 9.94301C5.778 9.85601 6.416 9.35501 6.688 9.62401C6.919 9.86001 5.396 10.567 5.732 9.94301ZM16.555 73.288C16.657 72.543 16.936 71.972 17.19 71.378C17.643 71.984 17.931 72.759 18.143 73.606C17.409 73.706 16.923 73.553 16.555 73.288ZM28.967 73.288H25.465C26.291 71.46 27.508 70.022 28.33 68.195C29.625 68.81 28.678 71.665 28.967 73.288ZM102.817 17.901C102.256 27.528 101.726 37.183 100.903 46.55V50.686C101.168 51.587 100.457 51.512 100.586 52.277V57.053C99.793 60.289 100.842 65.373 99.633 68.194C97.235 68.025 95.739 68.757 93.264 68.514C85.47 70.16 75.927 70.06 68.119 71.694C68.371 69.828 69.708 69.042 70.029 67.24C69.852 66.317 69.532 67.726 69.074 67.556C68.752 67.979 68.772 68.742 68.119 68.83C67.919 70.01 67.224 70.693 66.845 71.693C63.7 71.943 60.827 72.465 57.615 72.65C58.909 70.23 61.049 68.656 61.751 65.647C60.77 64.823 60.047 66.297 59.523 66.92C58.714 67.593 58.117 68.483 57.615 69.467C56.714 69.945 56.261 70.869 55.066 71.058C55.078 71.808 54.522 71.997 54.751 72.968H42.336C42.346 71.663 43.956 70.76 43.291 69.785C41.589 69.993 41.729 72.044 40.746 72.968C37.838 72.819 35.378 73.12 32.788 73.287C32.246 71.174 32.075 68.696 31.197 66.92C30.514 65.527 31.685 64.956 31.197 64.056C28.06 64.423 26.338 66.199 24.513 67.874C24.014 67.415 23.884 66.592 22.6 66.919C20.544 67.088 20.179 68.953 18.463 69.466C18.731 68.354 19.525 67.771 19.418 66.282C17.957 66.336 17.272 67.646 16.555 68.512C15.764 69.46 15.413 70.779 14.326 71.376C14.339 71.813 14.178 72.074 14.008 72.331C13.881 72.877 14.478 73.147 14.008 73.286C12.352 73.243 11.209 72.691 9.551 72.649C9.649 71.899 10.657 72.056 10.507 71.057C11.407 71.007 11.25 72.014 12.098 72.012C13.412 71.522 14.366 70.673 14.644 69.148C15.562 68.158 16.156 66.84 16.872 65.646C18.295 63.355 19.905 61.25 20.69 58.326C16.905 59.104 15.584 62.346 13.37 64.692C13.406 65.078 12.907 64.887 13.37 64.692C14.438 62.047 16.001 59.895 17.19 57.37C18.227 54.936 21.225 53.024 20.053 49.413C16.551 49.305 15.934 52.08 14.008 53.551C12.991 56.037 11.042 57.59 10.185 60.235C9.438 59.968 10.209 58.594 10.507 58.326C10.42 57.179 11.094 56.791 11.14 55.779C12.038 54.554 12.248 52.64 13.052 51.322C13.379 49.634 14.247 48.481 14.644 46.865C15.176 45.278 16.444 44.422 16.555 42.408C16.37 41.427 15.404 41.225 14.644 40.818C12.82 40.901 12.341 42.333 11.14 43.046C10.437 45.42 8.981 47.038 8.277 49.413C7.556 49.073 8.156 47.41 7.959 46.549C8.393 45.921 8.262 44.73 8.595 44.002C8.645 42.989 9.315 42.603 9.234 41.455C9.98 41.143 9.519 39.62 10.184 39.227C10.688 35.885 13.56 33.295 12.414 29.36C9.7 29.086 8.864 30.689 7.958 32.224C7.238 31.988 7.834 30.439 7.638 29.679C6.916 29.34 7.52 27.678 7.321 26.814C6.698 21.815 6.244 16.644 5.731 11.536C6.462 11.973 6.754 12.847 7.321 13.445C9.691 14.578 11.549 16.222 13.687 17.583C16.076 18.696 17.884 20.389 20.372 21.403C24.469 24.308 29.5 26.281 33.74 29.041C36.322 29.966 38.363 31.424 40.427 32.861C42.637 34.151 44.339 35.952 46.795 36.999C48.551 38.745 51.326 39.471 52.843 41.455C54.194 41.908 54.978 42.925 56.025 43.684C57.59 43.921 58.353 44.962 60.48 44.641C61.779 44.24 62.628 43.389 63.027 42.094C65.048 41.356 66.28 39.828 68.121 38.91C69.436 37.363 71.578 36.638 72.894 35.09C74.946 34.383 76.061 32.739 77.988 31.907C79.561 30.613 81.403 29.593 83.082 28.406C89.249 23.219 97.093 19.713 102.817 14.08C103.532 14.816 103.071 17.079 102.817 17.901ZM11.462 67.24C12.061 67.554 11.304 69.178 10.507 69.149C10.18 67.868 11.001 67.735 11.462 67.24ZM104.726 7.71601C104.788 7.35301 105.043 7.53901 105.043 7.71601C104.983 8.07601 104.723 7.89201 104.726 7.71601Z" fill="#7BB92F"/>
</g>
<defs>
<clipPath id="clip0_156_5">
<rect width="110" height="79" fill="white"/>
</clipPath>
</defs>
</svg>
