<svg width="117" height="83" viewBox="0 0 117 83" fill="none" xmlns="http://www.w3.org/2000/svg">
<g clip-path="url(#clip0_160_31)">
<mask id="mask0_160_31" style="mask-type:luminance" maskUnits="userSpaceOnUse" x="0" y="0" width="117" height="83">
<path d="M116.777 0H0.777344V83H116.777V0Z" fill="white"/>
</mask>
<g mask="url(#mask0_160_31)">
<path d="M0.86358 77.0341C0.571311 78.923 2.1203 81.0778 4.24524 81.7405C5.35777 82.0874 6.51094 82.2871 7.6753 82.3345C8.64736 82.3701 9.61943 82.4129 10.5915 82.457C12.8668 82.5575 15.1966 82.6613 17.5257 82.6613C18.4615 82.6613 19.3971 82.6444 20.3277 82.6036C24.8582 82.409 29.4581 82.1185 33.9063 81.8378C39.2345 81.5025 44.7434 81.1562 50.163 80.9682C64.2723 80.4799 78.4353 78.5379 92.1324 76.66L93.9093 76.4162C97.1203 75.9772 100.441 75.522 103.679 74.8794C103.822 74.8515 103.97 74.8262 104.12 74.8009C105.421 74.5791 107.386 74.2452 107.892 71.2566C107.919 71.0944 107.886 70.9284 107.799 70.7897C107.711 70.6509 107.576 70.5491 107.418 70.5044C107.077 70.4071 106.762 70.3001 106.464 70.1983C105.852 69.9577 105.21 69.8008 104.556 69.7327L102.492 69.6108C97.7295 69.3294 92.8057 69.0389 87.9531 68.9092C74.2023 68.5331 60.4409 68.891 46.7279 69.9811C37.8937 70.6944 28.8989 71.2779 20.1995 71.8427C15.7928 72.1287 11.3859 72.4205 6.97918 72.7181C6.03812 72.7596 5.10625 72.9204 4.20569 73.1967C3.33961 73.4483 2.56423 73.9437 1.97171 74.6245C1.37919 75.3047 0.994379 76.1412 0.86358 77.0341Z" fill="#4D4D4D"/>
<path d="M3.22243 43.1126C3.20096 43.8194 3.38017 44.5179 3.73916 45.1271C4.09815 45.7363 4.62216 46.2312 5.25074 46.5545C6.31844 47.0793 7.47887 47.3888 8.66596 47.4655C10.2401 47.5621 11.8919 47.6451 13.569 47.6451C14.3894 47.6451 15.2153 47.625 16.0409 47.5771C20.9661 47.2943 25.965 46.9598 30.802 46.6369C39.8571 46.0325 49.2202 45.4049 58.4347 45.0891C70.978 44.6572 83.589 43.1159 95.7845 41.6251C98.982 41.236 102.177 40.8518 105.37 40.4728C105.625 40.4436 105.882 40.4197 106.144 40.3957C108.013 40.2238 110.34 40.0099 112.715 37.4647C112.789 37.3858 112.842 37.2902 112.87 37.1862C112.899 37.0823 112.902 36.9732 112.879 36.8679C112.856 36.7626 112.807 36.6644 112.738 36.5818C112.669 36.4992 112.581 36.4346 112.481 36.3935C108.143 34.6077 104.391 34.3631 100.611 34.2535L97.3113 34.1582C86.8622 33.8541 76.0593 33.5396 65.3901 33.9501C47.4561 34.6413 29.8935 36.3877 10.4399 38.4303C8.61114 38.63 6.82873 39.1354 5.1672 39.9255C4.57553 40.219 4.07887 40.674 3.73473 41.2381C3.39059 41.802 3.21304 42.4519 3.22243 43.1126Z" fill="#4D4D4D"/>
<path d="M6.91283 9.30705C8.1776 9.92436 9.54562 10.3015 10.9479 10.4192C11.7169 10.4762 12.4864 10.5351 13.2562 10.5956C16.8095 10.8705 20.4743 11.1544 24.1046 11.1544C24.3852 11.1544 24.6664 11.1545 24.947 11.1493C31.8098 11.0631 38.7848 10.9028 45.5304 10.7479C54.4799 10.543 63.7345 10.3309 72.8343 10.2887C85.86 10.2284 98.9453 8.7383 111.601 7.29747L112.007 7.25156C112.804 7.0986 113.567 6.79844 114.255 6.36646C114.715 6.12265 115.238 5.84767 115.879 5.55069C115.994 5.49796 116.091 5.41372 116.16 5.30784C116.229 5.20196 116.266 5.07879 116.267 4.95259C116.269 4.82639 116.235 4.70237 116.168 4.59497C116.102 4.48757 116.006 4.4011 115.893 4.34579C115.232 4.02157 114.676 3.71035 114.185 3.43282C113.416 2.91444 112.551 2.55407 111.641 2.37262L109.154 2.07309C104.323 1.4895 99.3283 0.883162 94.3857 0.676958C67.7556 -0.435762 40.7152 0.608936 14.5659 1.61985L9.87302 1.8008C9.16328 1.82876 8.4582 1.92888 7.76875 2.09969C6.98007 2.24831 6.25949 2.6449 5.71167 3.23176C5.16385 3.81863 4.81728 4.56515 4.72283 5.36261C4.60132 6.16975 4.75041 6.99446 5.14653 7.708C5.54265 8.42154 6.16378 8.9838 6.91283 9.30705Z" fill="#4D4D4D"/>
</g>
</g>
<defs>
<clipPath id="clip0_160_31">
<rect width="117" height="83" fill="white"/>
</clipPath>
</defs>
</svg>
