<svg width="102" height="167" viewBox="0 0 102 167" fill="none" xmlns="http://www.w3.org/2000/svg">
<mask id="mask0_156_24" style="mask-type:luminance" maskUnits="userSpaceOnUse" x="0" y="0" width="102" height="167">
<path d="M101.777 0H0.777344V167H101.777V0Z" fill="white"/>
</mask>
<g mask="url(#mask0_156_24)">
<path d="M101.184 92.9296C101.184 108.655 101.212 124.381 101.161 140.107C101.174 143.339 100.986 146.568 100.599 149.777C100.406 151.699 99.7909 153.554 98.7991 155.211C95.8856 159.626 91.4183 163.185 86.0666 164.303C81.7624 165.283 77.3793 165.876 72.969 166.075C58.0964 166.456 43.2157 166.566 28.337 166.67C25.3316 166.691 22.3191 166.261 19.315 165.982C10.9391 165.205 6.56689 159.737 4.25555 152.43C3.10246 148.783 2.88558 144.824 2.40389 140.986C0.720561 127.58 1.08701 114.11 1.25794 100.647C1.39821 89.554 1.5156 78.4608 1.61012 67.3676C1.70335 54.6576 1.6043 41.9441 1.87299 29.2385C1.96988 24.9402 2.53895 20.6656 3.56992 16.4916C5.47662 8.77915 10.8504 4.81055 18.5814 3.25318C36.5342 -0.362566 54.6119 0.123123 72.7229 1.0727C79.1325 1.40864 84.8766 3.69786 90.2199 7.16411C93.9977 9.5781 96.7771 13.2737 98.0474 17.5719C99.0775 21.0794 99.7119 24.6912 99.9385 28.3396C100.544 39.8437 100.972 51.3567 101.224 62.8788C101.429 72.8916 101.267 82.9122 101.267 92.9296H101.184ZM12.5823 132.038C38.9962 129.705 65.5222 128.889 92.0295 129.594C92.1065 128.244 92.2127 127.191 92.2192 126.137C92.3836 100.613 91.8954 74.4418 92.0327 48.9153C92.0437 47.6254 91.9576 46.3364 91.7737 45.0595C90.9114 39.2086 90.7126 34.0013 89.7168 28.1731C89.2604 25.6451 88.6395 23.1495 87.858 20.7021C87.4573 19.4148 86.7736 18.2334 85.8575 17.2441C84.9413 16.2548 83.8155 15.4825 82.562 14.984C78.9357 13.3043 75.0006 12.3923 71.0046 12.3051C66.8002 12.228 62.5883 12.2784 58.3923 12.0829C45.7291 11.4926 33.207 12.6188 20.7296 14.7277C16.7576 15.3989 14.5874 17.5524 13.7477 21.2814C13.4086 22.7497 13.1921 24.2435 13.1002 25.7476C12.9468 28.542 12.8918 31.3436 12.8723 34.1425C12.71 57.8332 12.5564 81.5257 12.4114 105.219C12.366 112.111 12.267 119.002 12.2495 125.894C12.2489 127.798 12.4509 129.703 12.5823 132.038ZM91.5834 137.029L12.9487 137.956C13.4622 142.876 13.2232 147.412 14.6198 151.727C15.6926 155.041 17.991 157.155 21.7364 157.218C23.1368 157.242 24.5352 157.353 25.935 157.359C30.4612 157.375 34.9868 157.366 39.513 157.359C51.69 157.341 63.8683 157.41 76.0423 157.24C79.2646 157.173 82.4668 156.717 85.5791 155.88C88.4472 155.124 91.1561 153.314 91.4791 150.139C91.9013 146.004 91.5834 141.794 91.5834 137.029Z" fill="#7BB92F"/>
<path d="M59.2333 146.565C59.2236 150.018 55.9534 153.02 52.1225 153.092C51.2857 153.114 50.4532 152.967 49.675 152.658C48.8968 152.35 48.189 151.888 47.5942 151.299C46.9994 150.71 46.5299 150.007 46.2139 149.232C45.898 148.457 45.7421 147.626 45.7557 146.789C45.813 144.997 46.5477 143.292 47.812 142.02C49.0762 140.747 50.776 140.001 52.5686 139.932C55.9295 139.889 59.2411 143.187 59.2333 146.565Z" fill="#7BB92F"/>
</g>
</svg>
