<svg width="32" height="62" viewBox="0 0 32 62" fill="none" xmlns="http://www.w3.org/2000/svg">
<g clip-path="url(#clip0_126_34)">
<path d="M28.0093 58.2236C27.7613 58.2236 27.5122 58.2139 27.2671 58.2031L3.2593 57.1787C2.69973 57.1553 1.93313 57.123 1.28176 56.7041C0.212427 56.0176 -0.0375732 54.6553 0.188989 53.6084C0.387232 52.6953 0.87063 51.9473 1.33743 51.2236L1.44094 51.0625C3.9927 47.0918 5.78665 42.5381 6.62747 37.8906L6.73586 37.2754C7.06008 35.4111 7.39504 33.4834 8.66458 31.9658C10.5054 29.7642 13.4927 29.3457 16.395 29.1055C17.023 29.0537 17.6929 29.0024 18.3736 29.0024C19.9566 29.0024 21.1558 29.2915 22.147 29.9116C23.8482 30.9751 24.6031 32.835 24.937 34.207C25.1988 35.2852 25.2964 36.3809 25.3911 37.4404C25.4351 37.9365 25.479 38.4326 25.5396 38.9268C25.9683 42.3789 27.2613 45.7021 29.2769 48.5371C29.4556 48.7891 29.6411 49.0381 29.8267 49.2871C30.6089 50.3408 31.4175 51.4297 31.8267 52.7539C32.3628 54.4912 31.9624 56.8438 30.1646 57.7842C29.4214 58.1738 28.6226 58.2236 28.0093 58.2236ZM18.3736 30.5024C17.7505 30.5024 17.1157 30.5508 16.5191 30.6006C13.9331 30.8145 11.2857 31.1704 9.81497 32.9287C8.80422 34.1367 8.50442 35.8633 8.21438 37.5322L8.10403 38.1582C7.22805 42.9971 5.35989 47.7393 2.70266 51.873L2.59719 52.0361C2.18508 52.6758 1.79543 53.2793 1.65579 53.9268C1.5386 54.4648 1.6509 55.1592 2.09231 55.4424C2.37942 55.627 2.80129 55.6582 3.32278 55.6807L27.3306 56.7051C27.5542 56.7139 27.7827 56.7236 28.0093 56.7236C28.6656 56.7236 29.1157 56.6406 29.4693 56.4551C30.5093 55.9111 30.7564 54.3711 30.3931 53.1973C30.0601 52.1172 29.3618 51.1777 28.6226 50.1816C28.4302 49.9238 28.2388 49.666 28.0542 49.4062C25.895 46.3701 24.5103 42.8096 24.0513 39.1113C23.9878 38.5996 23.9419 38.0859 23.897 37.5732C23.8032 36.5225 23.7154 35.5303 23.48 34.5615C23.1011 33.0039 22.3452 31.8042 21.3521 31.1831C20.6099 30.7187 19.6636 30.5024 18.3736 30.5024Z" fill="#EF8517"/>
<path d="M15.7627 61.6973C15.0596 61.6973 14.3584 61.5371 13.7383 61.211C12.334 60.4746 11.3887 58.9141 11.3867 57.3272C11.3857 56.9131 11.7217 56.5772 12.1357 56.5762C12.5498 56.5762 12.8857 56.9111 12.8867 57.3252C12.8887 58.3701 13.5107 59.3975 14.4355 59.8828C15.3584 60.3682 16.5586 60.2949 17.418 59.7041C18.248 59.1319 18.79 58.1094 19.2676 57.207C19.4609 56.8408 19.9131 56.7031 20.2822 56.8955C20.6475 57.0899 20.7871 57.544 20.5938 57.9102C20.0625 58.9121 19.4014 60.1582 18.2695 60.9385C17.54 61.4414 16.6504 61.6973 15.7627 61.6973Z" fill="#EF8517"/>
<path d="M14.4757 30.5239C14.2051 30.5239 13.9444 30.3779 13.8106 30.1221C12.7882 28.1729 11.8399 26.0933 12.4268 23.9824C12.543 23.5659 12.71 23.186 12.8721 22.8184C13.0714 22.3682 13.2589 21.9429 13.3126 21.5244C13.4005 20.8491 13.1563 20.127 12.8975 19.3623L12.7676 18.9736C11.8389 16.1323 10.6973 5.73341 11.4659 3.73146C12.5801 0.823256 14.4053 0.244154 15.7169 0.250013C17.4991 0.274427 19.3799 1.30812 20.1905 2.70802C21.1046 4.28956 21.1465 10.416 19.8926 15.311C19.3565 17.4043 19.0313 20.126 18.9981 20.8071C18.9737 21.3042 19.1934 22.0186 19.4063 22.7095C19.6348 23.4527 19.8721 24.2212 19.8741 24.9141C19.878 26.2622 19.5264 28.3643 18.5245 29.8535C18.294 30.1968 17.8282 30.2881 17.4835 30.0571C17.1397 29.8262 17.0489 29.3604 17.2803 29.0166C17.9278 28.0532 18.378 26.3677 18.3741 24.9185C18.3721 24.4492 18.169 23.7891 17.9727 23.1509C17.7217 22.336 17.463 21.4937 17.5001 20.7339C17.5362 19.9873 17.8692 17.1655 18.4395 14.939C19.7706 9.73976 19.4034 4.34425 18.8917 3.45851C18.3477 2.51759 16.9434 1.7671 15.6964 1.75001C15.6846 1.75001 15.6719 1.74952 15.6592 1.74952C14.4298 1.74952 13.5157 2.57374 12.8663 4.26857C12.3126 5.71242 13.2305 15.5601 14.1934 18.5078L14.3184 18.8814C14.6065 19.7329 14.9327 20.6973 14.8008 21.7173C14.7178 22.3506 14.4776 22.8965 14.2452 23.4238C14.0977 23.7573 13.959 24.0718 13.8721 24.3843C13.4317 25.9683 14.2198 27.6729 15.1387 29.4258C15.3311 29.7925 15.1895 30.2456 14.8233 30.438C14.712 30.4966 14.5928 30.5239 14.4757 30.5239Z" fill="#EF8517"/>
<path d="M10.7512 40.586C10.7092 40.586 10.6663 40.5821 10.6233 40.5752C10.2151 40.5049 9.94068 40.1172 10.011 39.709L10.5413 36.6172C10.7053 35.666 10.8909 34.5889 11.5178 33.6651C12.1565 32.7285 13.4485 31.9121 14.7776 32.336C15.1721 32.4619 15.3909 32.8838 15.2649 33.2783C15.1399 33.6729 14.718 33.8897 14.3225 33.7656C13.7542 33.5791 13.094 34.0147 12.7581 34.5088C12.3137 35.1631 12.1643 36.0313 12.0198 36.8711L11.4895 39.9629C11.427 40.3281 11.1096 40.586 10.7512 40.586Z" fill="#EF8517"/>
<path d="M17.0743 6.33255C17.0079 6.33255 16.9424 6.33108 16.877 6.32766C16.4629 6.30569 16.1456 5.95315 16.167 5.53958C16.1895 5.12503 16.5713 4.81595 16.9551 4.82962C17.7608 4.86477 18.5499 4.48245 19.0088 3.84036C19.2491 3.50491 19.7178 3.42483 20.0547 3.66604C20.3926 3.90677 20.4698 4.37503 20.2295 4.71243C19.5069 5.72366 18.3126 6.33255 17.0743 6.33255Z" fill="#EF8517"/>
<path d="M17.3801 9.31738C17.0256 9.31738 16.7112 9.06543 16.6438 8.70459C16.5676 8.29736 16.8362 7.90576 17.2434 7.83008C17.966 7.69531 18.6438 7.37353 19.2053 6.89892C19.5198 6.63183 19.9934 6.66992 20.2619 6.9873C20.5295 7.30371 20.4905 7.77685 20.174 8.04443C19.4143 8.68701 18.4963 9.12256 17.5188 9.30469C17.4719 9.31347 17.426 9.31738 17.3801 9.31738Z" fill="#EF8517"/>
<path d="M17.6242 12.2012C17.4836 12.2012 17.342 12.1939 17.2014 12.1787C16.7893 12.1353 16.4914 11.7661 16.5344 11.354C16.5783 10.9424 16.9387 10.6436 17.3596 10.6875C17.9192 10.7461 18.5207 10.606 19.0002 10.3013C19.3508 10.0781 19.8127 10.1821 20.0363 10.5303C20.259 10.8799 20.1565 11.3433 19.8069 11.5659C19.1555 11.9814 18.3938 12.2012 17.6242 12.2012Z" fill="#EF8517"/>
</g>
<defs>
<clipPath id="clip0_126_34">
<rect width="32" height="62" fill="white"/>
</clipPath>
</defs>
</svg>
