<svg width="50" height="44" viewBox="0 0 50 44" fill="none" xmlns="http://www.w3.org/2000/svg">
<g clip-path="url(#clip0_64_1810)">
<path d="M47.94 15.0999C47.32 14.8099 46.65 15.0199 46.28 13.7699C46.1094 12.5446 46.1807 11.2978 46.49 10.0999C46.49 10.0999 48.19 6.63994 48.49 5.47994C48.79 4.31994 49.28 3.30994 48.57 2.13994C47.86 0.969944 46.07 1.13994 42.32 0.929944C38.57 0.719944 33.57 0.849944 26.32 0.729944C19.07 0.609944 19.1 0.819944 18.45 1.17994C16.45 2.30994 13.32 9.09994 8.36002 17.8099C3.40002 26.5199 1.24002 30.1399 0.69002 31.6399C0.14002 33.1399 0.61002 35.1399 0.57002 35.5599C0.51615 36.6046 0.586645 37.6519 0.78002 38.6799C1.03002 39.8499 1.32002 40.6799 3.94002 41.5999C6.56002 42.5199 9.94002 42.7699 18.65 42.9299C27.36 43.0899 35.19 43.5199 36.78 43.1799C38.37 42.8399 38.57 40.9299 39.07 39.2699C39.57 37.6099 42.53 31.1399 43.74 28.0999C44.95 25.0599 49.24 16.6399 49.53 16.0999C49.82 15.5599 48.57 15.3899 47.94 15.0999ZM7.47002 23.2799C10.97 17.7199 16.18 8.46994 17.65 6.21994C19.12 3.96994 19.72 2.80994 20.06 2.71994C20.4 2.62994 29.93 2.71994 34.93 2.71994C38.266 2.62863 41.6044 2.7221 44.93 2.99994C46.59 3.24994 46.84 3.36994 46.59 4.11994C46.34 4.86994 43.28 10.8999 42.25 13.3399C41.7621 14.5365 41.2079 15.705 40.59 16.8399C40.3299 16.2009 40.0154 15.5853 39.65 14.9999C39.53 14.9999 38.97 15.2799 38.97 15.5299C38.97 15.7799 40.03 17.5299 39.97 17.6799C39.91 17.8299 39.5 18.9999 39.5 18.9999C39.199 18.2068 38.831 17.4407 38.4 16.7099C38.25 16.7099 37.72 17.5599 37.75 17.6499C38.1229 18.3817 38.4567 19.1328 38.75 19.8999C38.75 20.2499 38.62 20.9999 38.46 20.8999C38.3 20.7999 37.46 18.5599 37.34 18.5599C37.0775 18.6921 36.869 18.9112 36.75 19.1799C36.68 19.4299 37.87 21.9699 37.81 22.1799C37.75 22.3899 37.28 23.8699 37.18 23.6799C36.7616 22.7103 36.2943 21.7624 35.78 20.8399C35.62 20.7799 34.9 21.4699 35.03 21.6799C35.5485 22.7526 35.9864 23.8623 36.34 24.9999C36.28 25.2499 36 26.5899 35.75 26.4999C35.5 26.4099 34.37 23.0599 34.12 22.9999C33.87 22.9399 33.12 23.3699 33.25 23.7799C33.9028 25.1023 34.4869 26.4574 35 27.8399C35 28.2199 34.47 29.4699 34.31 29.4299C34.15 29.3899 32.87 25.5599 32.65 25.4299C32.43 25.2999 31.9 25.7699 31.94 26.0199C31.98 26.2699 33.94 30.4599 33.59 30.8599C33.4289 31.0823 33.2408 31.2839 33.03 31.4599C33.03 31.4599 31 26.6799 30.65 26.6799C30.3 26.6799 29.78 27.0299 29.87 27.3399C29.96 27.6499 32.34 32.1799 32.18 32.3999C31.9195 32.6397 31.6267 32.8417 31.31 32.9999C31.31 32.9999 28.9 27.6499 28.75 27.6499C28.6 27.6499 27.93 28.3099 27.97 28.5599C28.01 28.8099 30.22 33.0599 30.09 33.0599C29.96 33.0599 28.68 33.3099 28.53 33.1199C28.38 32.9299 25.87 27.8099 25.78 27.7799C25.69 27.7499 24.87 28.0299 25 28.4299C25.13 28.8299 27.68 32.8699 27.25 32.8099C26.82 32.7499 25.87 32.4999 25.87 32.4999C25.87 32.4999 23.93 28.6499 23.87 28.6499C23.81 28.6499 23.15 28.7499 23.21 29.1499C23.27 29.5499 25 32.2499 24.84 32.2499C24.68 32.2499 23 31.9999 22.93 31.8399C22.653 30.9471 22.256 30.096 21.75 29.3099C21.53 29.3099 20.81 29.5599 21 29.8099C21.3368 30.3521 21.5897 30.9421 21.75 31.5599C21.5673 31.6242 21.3721 31.6447 21.18 31.6199C21.06 31.5599 20.12 29.7499 20 29.7499C19.7161 29.8484 19.4417 29.9722 19.18 30.1199C19.18 30.1199 20.03 31.5899 19.68 31.5899C16.7397 31.2029 13.7755 31.0258 10.81 31.0599C6.40002 31.1799 3.81002 31.4699 3.81002 31.4699C3.44002 31.4699 3.12002 31.4699 3.12002 31.4699C3.12002 31.4699 4.00002 28.8399 7.47002 23.2799ZM38.81 34.9299C37.5 38.4999 36.56 40.9999 36 41.3099C35.44 41.6199 27.9 41.7799 22.5 41.5299C17.1 41.2799 14.5 41.2199 9.81002 40.8999C5.12002 40.5799 3.50002 39.8999 3.12002 39.3399C2.74002 38.7799 2.59002 33.6199 3.34002 33.4699C4.85928 33.2056 6.39795 33.0684 7.94002 33.0599C12.6832 32.853 17.4354 33.0302 22.15 33.5899C26.87 34.2799 28.78 34.9299 30.47 34.8399C31.2185 34.8346 31.9637 34.7406 32.69 34.5599C32.8419 35.6538 33.0929 36.7316 33.44 37.7799C33.81 38.5599 33.87 39.1199 33.75 39.1199C33.63 39.1199 26.34 38.8099 19.12 38.7499C11.9 38.6899 7.44002 38.4999 6.34002 38.2199C5.24002 37.9399 5.06002 37.8999 4.87002 36.9299C4.68002 35.9599 5.31002 34.1799 5.06002 33.9999C4.81002 33.8199 4.06002 33.5599 3.84002 33.7799C3.62002 33.9999 3.25002 37.1799 3.75002 38.0299C4.25002 38.8799 4.28002 39.2499 7.28002 39.5299C10.28 39.8099 17.15 40.0899 22 40.2799C26.85 40.4699 31.47 40.5299 32.62 40.5299C33.77 40.5299 34.19 40.5899 35.06 39.6799C35.93 38.7699 37.19 35.7799 38.5 33.1499C39.81 30.5199 42.84 24.6799 42.84 24.6799L43.12 24.5299C43.12 24.5299 40.12 31.3699 38.81 34.9299ZM46 15.9999C45.71 16.3999 38 31.4399 36.84 33.8699C35.68 36.2999 34.96 37.6199 34.96 37.6199C34.4519 36.4538 34.0567 35.2416 33.78 33.9999C35.3474 31.8865 36.6881 29.614 37.78 27.2199C39.87 22.7499 42.78 17.0599 43.59 15.3399C44.4 13.6199 45.18 12.2199 45.18 12.2199C45.1118 12.9822 45.1556 13.7504 45.31 14.4999C45.53 15.1499 46.25 15.6199 46 15.9999ZM43 17.8599C42.75 17.9899 40.65 22.8599 40.34 23.4299C40.03 23.9999 39.71 24.8799 39.94 24.7799C40.6395 23.9798 41.2158 23.0799 41.65 22.1099C42.3425 20.7895 42.9666 19.4344 43.52 18.0499C43.44 17.9999 43 17.8399 42.92 17.8899L43 17.8599ZM9.00002 35.6499C9.00002 35.6499 11.44 35.5699 13.5 35.3599C15.5819 35.2491 17.6682 35.2491 19.75 35.3599C19.92 35.3599 19.98 35.1499 19.75 35.0499C18.221 34.7208 16.6638 34.54 15.1 34.5099C12.9285 34.3839 10.7515 34.3839 8.58002 34.5099C8.34523 34.5504 8.1326 34.6734 7.98043 34.8567C7.82827 35.0401 7.74656 35.2717 7.75002 35.5099C7.76002 35.8699 8.09002 35.8099 8.92002 35.6799L9.00002 35.6499ZM12.13 37.7999C13.63 37.7399 16.13 37.6299 20.13 37.3799C24.13 37.1299 27.73 37.6999 28.51 37.2999C29.29 36.8999 28.9 36.2399 28.57 36.1999C27.948 36.196 27.3264 36.2361 26.71 36.3199C26.01 36.3799 22.71 36.1799 20.19 36.2199C17.67 36.2599 11.65 36.6999 11.32 36.7999C10.19 37.1599 10.55 37.8899 12.05 37.8299L12.13 37.7999ZM6.90002 29.7399C7.59327 29.7713 8.28735 29.7005 8.96002 29.5299C9.57002 29.3399 9.84002 28.6799 9.59002 28.5299C8.94559 28.4638 8.29771 28.4371 7.65002 28.4499C7.19002 28.3599 7.50002 27.8799 7.82002 27.3799C8.73971 26.142 9.5942 24.8569 10.38 23.5299C10.61 22.8599 9.80002 22.9299 9.38002 23.0099C8.96002 23.0899 6.19002 27.5699 5.80002 28.6299C5.41002 29.6899 6.44002 29.7499 6.82002 29.7699L6.90002 29.7399ZM39.65 5.30994C40.13 5.47994 41.84 5.42994 42.22 5.61994C42.6 5.80994 41.65 7.45994 41.53 7.88994C41.41 8.31994 42.42 8.28994 42.67 8.17994C43.2633 7.0478 43.7102 5.84482 44 4.59994C44.06 4.05994 39.89 3.92994 39.46 4.07994C39.03 4.22994 39.17 5.13994 39.65 5.30994ZM19.38 12.5399C20.09 12.5999 22.38 12.8299 28.32 12.9799C34.26 13.1299 36.03 13.4999 36.65 13.0399C37.27 12.5799 39.55 7.82994 39.74 7.26994C39.93 6.70994 39.59 6.17994 37.8 5.86994C34.4554 5.45365 31.0902 5.2233 27.72 5.17994C24.32 5.17994 22.17 5.35994 21.84 5.57994C21.51 5.79994 18.55 10.6799 18.26 11.2699C17.97 11.8599 18.67 12.4799 19.38 12.5399ZM20.13 10.7699C20.9683 9.28427 21.9072 7.85762 22.94 6.49994C23.22 6.40994 29.38 6.59994 32.53 6.67994C35.68 6.75994 38.03 7.24994 38.17 7.45994C37.7833 8.73256 37.2462 9.95453 36.57 11.0999C36.22 11.6599 35.8 12.0399 35.57 12.0399C35.34 12.0399 29.26 11.6799 25.72 11.5399C23.9033 11.5434 22.0875 11.4533 20.28 11.2699C20 11.1199 20 10.9999 20.13 10.7699ZM24.26 10.8299C24.67 10.7499 24.69 10.0199 24.76 9.82994C24.83 9.63994 23.11 9.68994 22.94 9.65994C22.77 9.62994 23.17 9.03994 23.57 8.70994C23.97 8.37994 23.07 8.03994 22.51 8.30994C21.8862 9.005 21.4281 9.83239 21.17 10.7299C22.1963 10.837 23.229 10.8704 24.26 10.8299Z" fill="#7BB92F"/>
</g>
<defs>
<clipPath id="clip0_64_1810">
<rect width="50" height="44" fill="white"/>
</clipPath>
</defs>
</svg>
