<svg width="143" height="131" viewBox="0 0 143 131" fill="none" xmlns="http://www.w3.org/2000/svg">
<g clip-path="url(#clip0_126_43)">
<mask id="mask0_126_43" style="mask-type:luminance" maskUnits="userSpaceOnUse" x="0" y="0" width="143" height="131">
<path d="M142.777 0H0.777344V131H142.777V0Z" fill="white"/>
</mask>
<g mask="url(#mask0_126_43)">
<path d="M67.3955 125.449L68.119 125.669C70.7796 126.474 73.2923 127.233 74.9486 130.561C74.9905 130.645 75.0493 130.719 75.1216 130.779C75.1938 130.838 75.2778 130.882 75.3675 130.907C75.4243 130.922 75.4824 130.929 75.5411 130.929C75.6695 130.929 75.7948 130.892 75.9026 130.821C77.1238 130.018 78.274 129.291 79.3661 128.6C81.6542 127.152 83.6306 125.903 85.5205 124.447C92.299 119.338 98.4844 113.475 103.96 106.965C111.156 98.2636 118.597 89.2656 125.602 79.8467C129.986 73.9503 133.723 67.3678 136.882 61.663C140.042 55.8907 141.923 49.4951 142.396 42.9172C143.253 32.1074 140.707 22.3639 134.828 13.9577C128.286 4.60191 119.585 0.0455049 108.986 0.396793C97.0283 0.80022 86.5125 5.41512 77.7292 14.1139C77.3032 14.5557 76.9088 15.0275 76.5493 15.5256C75.8664 16.425 75.2184 17.2788 74.2431 17.617C63.9979 7.5411 56.1646 3.59962 44.4463 2.58942C32.4202 1.55185 22.6843 5.45696 15.5074 14.1903C11.9458 18.5071 8.82399 23.1754 6.18958 28.1245C0.57413 38.7407 -0.596001 50.0327 2.71712 61.6891C5.67186 72.0929 10.5987 81.8182 17.2243 90.3254C30.471 107.388 47.3515 119.207 67.3955 125.449ZM17.7891 30.135C19.328 27.207 21.0423 24.3766 22.9224 21.6592C27.3922 15.072 33.6918 11.7475 41.6806 11.7475C42.6703 11.7475 43.6858 11.7985 44.7272 11.9006C55.3978 12.9479 63.9578 17.6946 70.169 26.0082C70.9151 27.0067 71.7278 27.931 72.4442 28.7456C72.736 29.078 73.0103 29.3903 73.2523 29.6765C73.353 29.7957 73.4924 29.8751 73.6454 29.9011C76.5261 30.403 77.6905 28.8948 78.5547 27.4466C83.5428 19.0932 91.3063 14.1069 102.989 11.7555C105.755 11.2734 108.577 11.2019 111.364 11.5435C115.789 11.9652 119.585 14.1611 122.648 18.0683C126.138 22.5501 128.207 27.9912 128.582 33.6798C129.2 40.2551 128.004 46.8749 125.127 52.8066C122.959 57.4039 120.492 61.8512 117.741 66.1184C112.633 73.717 107.177 81.2714 101.903 88.5767L100.069 91.1185C96.1408 96.5645 92.0783 102.054 88.1507 107.363C86.7333 109.278 85.3172 111.194 83.9017 113.112C83.2911 113.939 82.6553 114.75 81.9827 115.609C81.7607 115.892 81.5354 116.18 81.3063 116.474C79.4222 115.692 77.5878 114.927 75.789 114.18C71.5432 112.417 67.4949 110.735 63.4562 109.028C52.2776 104.38 42.1521 97.4841 33.695 88.7612C25.024 79.7528 19.0142 70.1155 15.3235 59.2979C11.9581 49.4305 12.7642 39.8909 17.7891 30.135Z" fill="#E2121B"/>
</g>
</g>
<defs>
<clipPath id="clip0_126_43">
<rect width="143" height="131" fill="white"/>
</clipPath>
</defs>
</svg>
