<svg width="56" height="50" viewBox="0 0 56 50" fill="none" xmlns="http://www.w3.org/2000/svg">
<path d="M53.85 12.57C54.63 11.51 54.95 10.35 54.51 9.64005C52.1852 7.29853 49.6438 5.18242 46.92 3.32005C46.2911 3.03289 45.5967 2.91946 44.9091 2.99156C44.2215 3.06367 43.5657 3.31867 43.01 3.73005C42.23 4.45005 36.6 13 36.6 13C36.0778 11.8331 35.7113 10.6026 35.51 9.34005C34.9846 6.4984 34.3171 3.68487 33.51 0.910046C33.2 0.470046 31.6 0.590046 30.38 0.910046C29.16 1.23005 21.38 2.84005 15.32 4.34005C9.26004 5.84005 2.07004 7.73005 1.92004 7.85005C1.77004 7.97005 1.29004 12.79 1.29004 12.95C1.29004 13.42 5.29004 26.2 7.42004 32.7C9.55004 39.2 12.2 47.7 13.04 48.82C13.88 49.94 16.1 49.23 22.63 47.26C29.16 45.29 37.26 43.14 40.63 41.89C44 40.64 43.51 38.98 43.29 37.89C43.07 36.8 41.29 30.76 41.29 30.76C41.73 29.6766 42.33 28.6654 43.07 27.76C44.57 25.6 53.07 13.64 53.85 12.57ZM40.26 11.26C44.26 5.89005 44.95 4.92005 45.45 5.07005C46.6397 5.75789 47.7853 6.51937 48.88 7.35005C49.73 7.95005 49.98 8.35005 49.88 8.45005C49.78 8.55005 39.45 21.32 38.26 23C37.07 24.68 36.45 25.84 36.26 25.87C36.07 25.9 35.35 25.12 35.1 25C34.85 24.88 34.2 24.62 34.29 24.47C34.38 24.32 44.07 11.47 45.7 9.47005C47.33 7.47005 47.6 7.37005 47.48 7.15005C47.36 6.93005 46.76 6.31005 46.48 6.53005C46.2 6.75005 36.32 19.6 35.26 21.23C34.6278 22.3182 33.8125 23.2891 32.85 24.1C32.67 24.1 29.95 23.92 30.23 23.7C30.23 23.7 36.29 16.64 40.26 11.26ZM38.42 31.64C38.32 31.79 34.98 33.51 34.79 33.26C34.5021 32.7192 34.0554 32.2795 33.51 32C32.63 31.56 30.73 30.69 30.32 30.56C29.91 30.43 29.32 30.56 29.32 30.5C29.32 30.44 29.26 25.56 29.32 25.31C29.5 24.85 32.95 24.59 35.26 26.78C36.7552 28.0656 37.8517 29.7519 38.42 31.64ZM22.6 42.76C20.51 43.35 15.95 45.04 15.6 44.67C15.25 44.3 12.14 35.26 10.14 28.32C8.14004 21.38 4.92004 9.70005 5.00004 9.35005C5.08004 9.00005 15.65 6.45005 19.65 5.35005C23.65 4.25005 31.65 2.54005 31.75 2.64005C31.85 2.74005 35.13 14.92 35.07 15C35.01 15.08 28.92 22.78 28.32 23.41C28.1571 23.5922 28.0621 23.8251 28.0511 24.0693C28.0402 24.3135 28.114 24.554 28.26 24.75C28.26 24.75 28.57 24.94 28.42 26.56C28.27 28.18 27.57 35.28 28.1 36.03C28.63 36.78 28.98 36.97 30.2 36.5C31.42 36.03 39.2 32.38 39.35 32.5C40.091 34.6015 40.7186 36.7413 41.23 38.91C41.2 39.07 24.7 42.17 22.6 42.76ZM41.2 27C41.1367 26.0901 40.8811 25.2039 40.45 24.4C40.17 24.28 39.79 24.9 39.79 25.19C39.79 25.48 40.54 27.44 40.48 27.78C40.4289 28.0205 40.3447 28.2527 40.23 28.47C39.976 27.4721 39.6621 26.4903 39.29 25.53C39.17 25.53 38.6 26 38.63 26.4C38.66 26.8 39.63 29.25 39.63 29.25C39.63 29.25 39.35 29.97 39.23 29.69C38.7086 28.6005 38.0352 27.5904 37.23 26.69C37 26.5 45 16 47.57 12.85C50.14 9.70005 50.67 9.29005 50.85 9.26005C51.03 9.23005 52.51 10.48 52.32 11.04C52.13 11.6 43.07 24.48 42.23 25.54C41.39 26.6 41.2 27.48 41.2 27ZM27.26 8.89005C27.51 8.76005 27.48 8.10005 27.17 7.89005C26.86 7.68005 24.42 8.42005 17.7 10.04C10.98 11.66 9.47004 12.85 9.45004 13C9.35004 13.44 9.67004 13.94 9.98004 13.94C12.5192 12.8224 15.1163 11.841 17.76 11C21.82 10 27 9.00005 27.26 8.89005ZM30.2 14.82C30.6 14.7 30.26 13.82 30.04 13.7C27.3267 14.2038 24.6531 14.9023 22.04 15.79C18.04 17.04 12.04 18.85 11.95 19.2C11.86 19.55 11.88 20.07 12.32 20.14C12.76 20.21 15.2 19.14 20.13 17.57C25.06 16 29.79 15 30.2 14.82ZM25 24.17C23.7225 24.1313 22.4446 24.2353 21.19 24.48C19.31 24.7 13.8 25.54 13.56 26.01C13.32 26.48 13.56 27.01 14 27.01C14.44 27.01 14.75 26.95 18.09 26.01C20.3838 25.3769 22.7246 24.9288 25.09 24.67C25.51 24.7 25.38 24.32 25 24.17ZM24.19 30.39C24.84 30.23 24.59 30.04 24.62 29.89C24.65 29.74 23.84 29.6 20.87 30.26C17.9 30.92 16 31.7 15.6 32.17C15.5496 32.2377 15.5143 32.3155 15.4965 32.398C15.4787 32.4805 15.4788 32.5659 15.4968 32.6483C15.5148 32.7308 15.5503 32.8084 15.6009 32.876C15.6515 32.9436 15.716 32.9995 15.79 33.04C16.04 33.1 16.1 32.95 18.85 31.79C20.5543 31.0921 22.343 30.6214 24.17 30.39H24.19ZM21.19 36.07C19.7982 36.3539 18.4522 36.8284 17.19 37.48C17.1298 37.6166 17.1147 37.7689 17.1471 37.9146C17.1795 38.0603 17.2576 38.1919 17.37 38.29C18.3768 38.1138 19.3622 37.8322 20.31 37.45C21.53 37.01 25.5 35.85 25.31 35.73C23.9307 35.615 22.5418 35.7299 21.2 36.07H21.19Z" fill="#372D86"/>
</svg>
