<svg width="62" height="63" viewBox="0 0 62 63" fill="none" xmlns="http://www.w3.org/2000/svg">
<g clip-path="url(#clip0_125_2)">
<path d="M28.115 62.7544C25.7199 62.7539 22.2009 62.5498 18.7985 62.3521C15.8776 62.1826 12.8576 62.0068 10.5866 61.9634L2.8088 61.813C2.25851 61.8022 1.33761 61.7842 0.719933 61.1128C0.139855 60.4834 0.155968 59.6177 0.165245 59.1001C0.222862 55.9727 0.223351 51.8779 0.224327 47.918C0.226769 36.5889 0.278038 31.5239 0.76339 30.5713C1.03292 30.043 1.33761 29.4438 11.758 29.4438C11.9436 29.4438 30.447 29.5591 31.4084 30.3906C31.698 30.6411 32.1355 31.0195 32.2614 46.0957C32.3186 52.9175 32.2863 61.2144 31.8093 61.9995C31.5051 62.5 30.8503 62.7544 28.115 62.7544ZM2.05636 31.4087C1.72726 32.9272 1.72579 41.2095 1.72433 47.918C1.72335 51.8848 1.72286 55.9868 1.66525 59.1279C1.65987 59.4204 1.6506 59.9092 1.82345 60.0967C2.00753 60.2969 2.54757 60.3076 2.8381 60.313L10.6159 60.4634C12.9152 60.5078 15.9504 60.6841 18.8855 60.8545C22.2668 61.0513 25.7629 61.2539 28.1145 61.2544C29.6218 61.2544 30.2614 61.1685 30.5232 61.1094C30.9509 58.2358 30.7746 34.8931 30.3078 31.5811C28.4157 31.3184 19.6897 30.9438 11.758 30.9438C4.46212 30.9438 2.5461 31.2666 2.05636 31.4087Z" fill="#E2121B"/>
<path d="M49.9331 62.8643C42.3901 62.8643 33.5361 62.4912 31.4575 62.374C31.0439 62.3506 30.728 61.9961 30.751 61.5825C30.7749 61.1699 31.1289 60.8701 31.5425 60.876C42.1289 61.4746 58.1919 61.5718 60.2085 60.8716C60.6621 59.4453 60.4678 50.9019 60.3247 44.6157C60.2344 40.6401 60.1411 36.5298 60.1567 33.4063C60.1602 32.773 60.1357 32.1284 59.8101 31.8179C59.5078 31.5313 58.9209 31.5259 58.3169 31.5088C53.8486 31.5156 49.2637 31.5493 44.6787 31.5825C40.0908 31.6157 35.5029 31.6489 31.0322 31.6563C30.6187 31.6563 30.2817 31.3213 30.2813 30.9072C30.2808 30.4932 30.6157 30.1567 31.0303 30.1563C35.498 30.1494 40.083 30.1157 44.668 30.0825C49.2559 30.0493 53.8438 30.0161 58.3145 30.0088C58.9771 30.0073 60.0815 30.0059 60.8442 30.7315C61.6665 31.5147 61.6602 32.7036 61.6567 33.4141C61.6411 36.5166 61.7344 40.6167 61.8242 44.5816C62.1147 57.3379 62.0806 61.165 61.2959 61.9507C60.5972 62.6509 55.6401 62.8643 49.9331 62.8643Z" fill="#E2121B"/>
<path d="M17.3748 58.6367H17.3728C5.74977 58.6362 5.10573 57.8398 4.89381 57.5781C3.95631 56.4194 3.24 36.5312 4.67262 34.7412C5.16872 34.1216 6.31178 33.7378 10.47 33.7378C12.3328 33.7378 14.5296 33.8149 16.6541 33.8896C19.2537 33.9805 21.9402 34.0776 24.0056 34.0269L24.345 34.0225C25.2092 34.0225 26.2947 34.1255 27.0178 34.9272C27.6707 35.6504 27.7341 36.5913 27.7434 37.4932C27.759 39.0513 27.8089 40.9351 27.8616 42.9141C28.1712 54.5293 28.0139 57.3491 27.0203 58.002C26.2215 58.5264 21.3342 58.6367 17.3748 58.6367ZM6.06178 56.5664C7.04323 56.855 11.3508 57.1367 17.3728 57.1367H17.3743C22.1897 57.1367 25.3816 56.9448 26.1399 56.7534C26.6951 55.4541 26.4954 47.958 26.3621 42.9541C26.3093 40.9658 26.259 39.0732 26.2434 37.5078C26.2371 36.8687 26.2063 36.2666 25.9046 35.9321C25.6453 35.645 25.179 35.5225 24.345 35.5225L24.0398 35.5269C21.9368 35.5737 19.2229 35.4805 16.6018 35.3887C14.49 35.3145 12.3069 35.2378 10.47 35.2378C6.66774 35.2378 5.95387 35.5903 5.82545 35.6982C4.96608 37.2715 5.40065 54.2422 6.06178 56.5664Z" fill="#E2121B"/>
<path d="M42.8868 58.561C35.7686 58.561 35.2129 57.9668 34.9458 57.6812C34.6851 57.4023 33.9927 56.6616 34.2691 46.0918C34.4502 39.1572 34.7984 35.3975 35.3028 34.9165C35.8384 34.4067 37.6377 34.2939 46.6285 34.2051C49.1802 34.1802 51.8189 34.1543 53.8125 34.085C54.0005 34.0786 54.1919 34.0732 54.3838 34.0732C55.1182 34.0732 56.0596 34.1465 56.8306 34.7207C58.3785 35.8735 58.1441 38.1392 58.0313 39.228C57.773 41.7275 57.9014 45.3223 58.0147 48.4946C58.2095 53.9312 58.2178 56.2275 57.5054 57.0527C56.2178 58.5439 43.4375 58.561 42.8868 58.561ZM36.0542 56.6299C36.541 56.7974 38.4351 57.061 42.8863 57.061C42.8868 57.061 42.8877 57.061 42.8877 57.061C49.6045 57.061 55.6822 56.4995 56.4297 56.0166C56.7632 55.4604 56.6201 51.4653 56.5157 48.5479C56.4004 45.3271 56.2701 41.6768 56.5391 39.0737C56.6739 37.772 56.6939 36.4893 55.9346 35.9238C55.6045 35.6777 55.1407 35.5732 54.3838 35.5732C54.2095 35.5732 54.0352 35.5781 53.8643 35.584C51.8526 35.6538 49.2041 35.6802 46.6431 35.7051C42.812 35.7427 37.6558 35.7935 36.4048 36.0415C35.8247 38.5718 35.3438 54.603 36.0542 56.6299Z" fill="#E2121B"/>
<path d="M46.8757 31.375C46.8674 31.375 46.8591 31.375 46.8508 31.3745C46.4367 31.3608 46.112 31.0147 46.1257 30.6006C46.2121 27.96 46.0988 25.4185 45.9889 22.9609C45.8893 20.7222 45.7858 18.4077 45.8337 16.0264C45.8737 14.0366 45.7922 12.0479 45.7126 10.125C45.6432 8.43555 45.571 6.68897 45.5798 4.92481C45.5871 3.38379 45.2844 2.4629 44.6535 2.10938C44.1862 1.84766 43.4006 1.87598 42.7072 1.90137C42.5241 1.90821 42.3454 1.91456 42.175 1.91651C36.4626 1.98389 31.7282 1.84376 26.7179 1.69434C25.4596 1.65674 24.1789 1.61866 22.8552 1.58301C22.5051 1.57374 22.1237 1.56006 21.7238 1.54542C20.1799 1.49024 16.6418 1.36231 15.8913 1.81397C15.5475 3.13428 16.0446 11.2241 16.446 17.7549C16.7116 22.0781 16.9865 26.5483 17.1012 29.9658C17.1154 30.3799 16.7907 30.7271 16.3771 30.7407C15.9592 30.7715 15.6164 30.4307 15.6022 30.0166C15.488 26.6196 15.214 22.1597 14.9489 17.8467C14.1091 4.1792 14.0803 1.47022 14.7668 0.797857C15.6852 -0.101069 18.2516 -0.0795843 21.778 0.0463923C22.173 0.0605525 22.55 0.0742243 22.8957 0.08399C24.2204 0.119634 25.5026 0.157721 26.7629 0.19483C31.7565 0.343267 36.4719 0.481939 42.1579 0.41651C42.3166 0.414556 42.4826 0.408697 42.6525 0.402349C43.5397 0.370611 44.5519 0.332525 45.3869 0.800787C46.9181 1.65919 47.0866 3.56983 47.0798 4.93213C47.071 6.66163 47.1423 8.39063 47.2116 10.063C47.2917 12.0088 47.3747 14.021 47.3337 16.0566C47.2863 18.3892 47.3888 20.6792 47.4875 22.894C47.5983 25.3804 47.7131 27.9507 47.6247 30.6494C47.6115 31.0552 47.2785 31.375 46.8757 31.375Z" fill="#E2121B"/>
<path d="M28.9624 28.6348C20.7978 28.6348 20.3647 27.9697 20.1064 27.5723C19.4731 26.5986 17.8037 5.98047 19.4892 4.50098C19.9951 4.05664 21.1504 3.79932 25.5561 3.79932C27.5024 3.79932 29.7934 3.85107 32.0093 3.90088C34.2163 3.95068 36.4985 4.00244 38.4277 4.00244H38.4301C38.9101 4.00244 39.3701 3.99951 39.8071 3.99219L40.0307 3.99023C40.77 3.99023 41.6098 4.07227 42.23 4.68262C42.9658 5.40674 42.9599 6.47607 42.956 7.11475C42.9424 9.30957 43.0044 12.1885 43.0644 14.9727C43.2583 23.9575 43.2314 26.6787 42.6816 27.3994C41.7842 28.5752 31.0962 28.6348 28.9624 28.6348ZM21.3379 26.6655C21.8828 26.8579 23.9702 27.1348 28.9624 27.1348C34.9428 27.1348 40.4179 26.7505 41.5171 26.4014C41.7876 25.3418 41.6592 19.3892 41.5649 15.0054C41.5049 12.2109 41.4424 9.32129 41.456 7.10596C41.4594 6.5625 41.4404 6.00977 41.1782 5.75195C40.9438 5.52148 40.4668 5.49023 40.0307 5.49023L39.8315 5.49219C39.3867 5.49951 38.9189 5.50244 38.4301 5.50244H38.4277C36.4814 5.50244 34.1909 5.45068 31.9751 5.40039C29.768 5.35059 27.4853 5.29932 25.5561 5.29932C21.9023 5.29932 20.8364 5.49854 20.5259 5.61572C19.7578 7.7002 20.7085 24.6191 21.3379 26.6655Z" fill="#E2121B"/>
<path d="M35.9299 22.6641C35.5808 22.6641 35.2678 22.419 35.196 22.063C34.4358 18.3159 33.2737 14.6411 31.7419 11.1411C31.4519 10.4766 30.9617 9.7212 30.5085 9.81592C30.2039 9.87403 29.9309 10.3242 29.697 11.1538C29.4099 12.1743 29.1003 13.2275 28.7844 14.2998C28.0403 16.8296 27.2703 19.4453 26.6902 21.9995C26.5984 22.4033 26.1975 22.6558 25.7927 22.5649C25.3889 22.4731 25.1355 22.0713 25.2273 21.6675C25.8181 19.0674 26.5945 16.4282 27.3455 13.8765C27.6594 12.8096 27.9675 11.7627 28.2532 10.7476C28.4182 10.1616 28.8567 8.60547 30.2263 8.34278C31.3791 8.12354 32.4001 8.90333 33.116 10.5396C34.6907 14.1372 35.885 17.9141 36.6658 21.7651C36.7483 22.1709 36.4861 22.5669 36.0798 22.6489C36.0295 22.6592 35.9797 22.6641 35.9299 22.6641Z" fill="#E2121B"/>
<path d="M27.83 17.8843C27.4452 17.8843 27.1176 17.5894 27.0839 17.1987C27.0482 16.7861 27.3539 16.4229 27.7665 16.3872L33.765 15.8691C34.1669 15.8355 34.5409 16.1387 34.5766 16.5518C34.6122 16.9644 34.3065 17.3276 33.8939 17.3633L27.8954 17.8814C27.8734 17.8833 27.8519 17.8843 27.83 17.8843Z" fill="#E2121B"/>
<path d="M11.1245 52.5415C10.7207 52.5415 10.3872 52.2202 10.3755 51.8135C10.3134 49.7075 10.375 47.7788 10.4345 45.9141C10.4936 44.0713 10.5542 42.166 10.4941 40.1055C10.4819 39.6914 10.8076 39.3462 11.2217 39.334C11.6416 39.3184 11.9814 39.6475 11.9931 40.0615C12.0551 42.168 11.9936 44.0967 11.9341 45.9619C11.875 47.8042 11.8144 49.7095 11.8745 51.7695C11.8867 52.1836 11.561 52.5288 11.1469 52.541C11.1396 52.5415 11.1318 52.5415 11.1245 52.5415Z" fill="#E2121B"/>
<path d="M11.9968 46.98C11.6115 46.98 11.2834 46.6846 11.2502 46.2935C11.2155 45.8804 11.5217 45.5176 11.9343 45.4824C13.9128 45.3149 15.8771 44.9331 17.7731 44.3472C18.5763 44.0996 19.444 43.7603 19.7922 43.1182C20.1701 42.4219 19.8234 41.4565 19.2697 40.9263C18.6862 40.3677 17.7912 40.0137 16.6086 39.8755C14.8898 39.6714 13.1423 39.9263 11.5514 40.6074C11.1706 40.77 10.7297 40.5933 10.5671 40.2129C10.404 39.832 10.5807 39.3916 10.9616 39.2285C12.7936 38.4448 14.8073 38.1543 16.7834 38.3853C18.297 38.563 19.4826 39.0532 20.3073 39.8433C21.4391 40.9272 21.7765 42.6055 21.1105 43.8335C20.5051 44.9492 19.3073 45.4438 18.2155 45.7808C16.217 46.3979 14.1462 46.8003 12.0612 46.9775C12.0397 46.979 12.0182 46.98 11.9968 46.98Z" fill="#E2121B"/>
<path d="M11.8933 52.6738C11.6789 52.6738 11.4714 52.6709 11.2737 52.6665C10.8596 52.6563 10.532 52.3125 10.5417 51.8984C10.552 51.4902 10.8855 51.1665 11.2912 51.1665C11.2976 51.1665 11.3039 51.1665 11.3098 51.1665C13.2102 51.2139 15.9802 51.04 18.0622 50.4155C18.8357 50.1831 19.6867 49.8623 20.1355 49.2412C20.5158 48.7144 20.5652 47.9478 20.2551 47.377C19.9914 46.8906 18.0149 46.0391 17.2458 46.0825C16.8254 46.0923 16.4802 45.7837 16.4597 45.3706C16.4392 44.957 16.758 44.605 17.1716 44.5845C18.3303 44.541 20.9597 45.5308 21.5735 46.6611C22.1574 47.7368 22.0681 49.127 21.3513 50.1196C20.6399 51.104 19.507 51.5479 18.4934 51.8521C16.4651 52.4609 13.863 52.6738 11.8933 52.6738Z" fill="#E2121B"/>
<path d="M46.9662 51.9233C45.4139 51.9233 43.8587 51.4604 42.742 50.5488C40.6151 48.8115 39.8426 45.6055 40.9452 43.0903C41.4711 41.8916 42.3934 40.8374 43.5423 40.1216C45.9046 38.6509 48.682 38.7637 50.972 40.4238C51.307 40.667 51.3817 41.1362 51.139 41.4717C50.8949 41.8071 50.4261 41.8804 50.0912 41.6387C48.3133 40.3486 46.161 40.2583 44.3353 41.395C43.4408 41.9521 42.7245 42.7686 42.3192 43.6929C41.4774 45.6128 42.0668 48.0605 43.6908 49.3867C45.2997 50.7012 48.2225 50.7886 49.9427 49.5747C50.2821 49.3364 50.7494 49.4165 50.9881 49.7549C51.2269 50.0937 51.1463 50.5615 50.808 50.8003C49.742 51.5522 48.3553 51.9233 46.9662 51.9233Z" fill="#E2121B"/>
</g>
<defs>
<clipPath id="clip0_125_2">
<rect width="62" height="63" fill="white"/>
</clipPath>
</defs>
</svg>
