<svg width="31" height="64" viewBox="0 0 31 64" fill="none" xmlns="http://www.w3.org/2000/svg">
<g clip-path="url(#clip0_125_16)">
<path d="M20.5462 63.2256C20.3152 63.2256 20.0872 63.2192 19.8645 63.2104L10.8299 62.8408C8.84941 62.7598 6.95439 62.5825 5.54277 61.3169C4.01006 59.9438 3.68925 57.8242 3.4915 55.7715C3.2205 52.9556 2.70781 49.2764 2.2122 45.7183C0.741013 35.1587 0.241013 30.7529 1.24199 29.7007C2.34258 28.5439 12.116 28.3711 17.8436 28.3711C27.637 28.3711 28.2591 28.8481 28.4637 29.0049C28.9065 29.3438 29.4578 29.7661 27.9808 41.2705C27.1824 47.4883 26.0477 54.7607 25.0901 59.7979C24.9808 60.3726 24.845 61.0874 24.4227 61.7046C23.4895 63.0679 21.7635 63.2256 20.5462 63.2256ZM2.33427 30.751C1.81718 32.0137 2.90215 39.8003 3.69756 45.5112C4.1956 49.085 4.71074 52.7803 4.98466 55.6279C5.16093 57.459 5.41289 59.186 6.54375 60.1997C7.58476 61.1333 9.19414 61.2729 10.8914 61.3418L19.9261 61.7114C20.1282 61.7197 20.3362 61.7256 20.5462 61.7256C21.9412 61.7256 22.7796 61.4497 23.1849 60.8574C23.43 60.4995 23.5291 59.978 23.6165 59.5176C25.5042 49.5894 27.7708 32.8027 27.429 30.207C26.4275 30.0356 22.9759 29.8711 17.8436 29.8711C8.93242 29.8711 3.28349 30.3184 2.33427 30.751Z" fill="#009DE0"/>
<path d="M26.423 29.9687C26.3707 29.9687 26.3185 29.9634 26.2658 29.9521C25.8605 29.8657 25.6022 29.4673 25.6886 29.0625C26.1696 26.8066 26.629 24.7178 27.089 22.6279C27.5441 20.5581 27.9997 18.4878 28.4762 16.2539C28.6798 15.2978 28.8165 14.5127 28.569 13.8462C28.3068 13.1391 27.5329 12.6123 26.7282 12.5933C25.9362 12.5635 25.1017 13.0259 24.6232 13.7436C24.2262 14.3393 24.0421 15.1069 23.8644 15.8491C23.279 18.2886 22.7814 20.4927 22.2819 22.7065C21.8214 24.748 21.3585 26.7983 20.8234 29.0483C20.7282 29.4512 20.3224 29.7026 19.9206 29.6045C19.5172 29.5088 19.2682 29.1045 19.3644 28.7016C19.8976 26.457 20.359 24.4126 20.8185 22.3765C21.32 20.1558 21.8185 17.9458 22.4054 15.4995C22.6041 14.6699 22.8297 13.7295 23.3751 12.9116C24.1442 11.7593 25.465 11.0727 26.7638 11.0933C28.1803 11.1274 29.5011 12.0449 29.9752 13.3247C30.3937 14.4526 30.1442 15.625 29.943 16.5669C29.466 18.8042 29.0099 20.8774 28.5539 22.9502C28.0949 25.0371 27.6359 27.123 27.1554 29.375C27.0802 29.7275 26.7692 29.9687 26.423 29.9687Z" fill="#009DE0"/>
<path d="M28.5635 19.229C28.5337 19.229 28.5035 19.227 28.4727 19.2236L22.7017 18.5361C22.2906 18.4863 21.9976 18.1128 22.0469 17.7017C22.0962 17.29 22.4654 16.9966 22.8814 17.0469L28.6524 17.7344C29.0635 17.7842 29.3565 18.1577 29.3072 18.5688C29.2613 18.9497 28.9375 19.229 28.5635 19.229Z" fill="#009DE0"/>
<path d="M12.3123 29.75C11.9187 29.75 11.5882 29.4434 11.5642 29.0454C11.3435 25.4102 11.6131 15.4058 12.6565 14.4722C13.3968 13.8096 14.3821 13.7139 15.1575 13.7041C16.0555 13.7026 16.805 13.9839 17.3274 14.5195C18.1253 15.3374 18.1663 16.5132 18.1936 17.2915C18.2679 19.4126 18.3465 21.2695 18.4246 23.126C18.5032 24.9868 18.5813 26.8477 18.656 28.9736C18.6707 29.3877 18.347 29.7349 17.9329 29.7495C17.5149 29.7705 17.1717 29.4399 17.157 29.0264C17.0828 26.9043 17.0042 25.0469 16.9261 23.1895C16.8474 21.3291 16.7693 19.4692 16.6946 17.3442C16.6692 16.6196 16.6165 15.9385 16.2537 15.5669C16.0237 15.3306 15.6209 15.1953 15.1756 15.2041C14.6956 15.21 14.1077 15.2539 13.7317 15.5293C13.3304 16.6084 12.7571 23.9409 13.0613 28.9546C13.0867 29.3682 12.7718 29.7236 12.3582 29.7485C12.3426 29.7495 12.3274 29.75 12.3123 29.75Z" fill="#009DE0"/>
<path d="M17.0223 15.8442C17.0061 15.8442 16.9905 15.8437 16.9744 15.8433C16.5603 15.8291 16.2366 15.4819 16.2508 15.0679C16.2654 14.6543 16.6145 14.3262 17.0262 14.3442C17.3333 14.3257 18.2845 13.4473 18.4832 12.6855C18.6761 11.9453 18.4466 10.4351 17.9812 9.38769C16.7508 6.61523 17.8006 4.36475 18.4275 3.02002C18.576 2.70166 18.7718 2.28271 18.8191 2.06689C17.7259 1.66748 15.159 3.03711 13.3694 4.60547C11.617 6.14209 11.2146 8.26465 11.1863 9.7749C11.1463 11.9092 11.9056 13.4019 13.4436 14.2114C13.8099 14.4043 13.9505 14.8579 13.7576 15.2246C13.5642 15.5913 13.1121 15.731 12.7444 15.5386C10.6932 14.4585 9.63554 12.4561 9.68632 9.74658C9.73514 7.18457 10.6917 4.9585 12.3807 3.47754C12.5662 3.31543 16.9471 -0.481935 19.5096 0.727538C20.8553 1.36377 20.2381 2.6875 19.7869 3.6543C19.1683 4.98047 18.3987 6.63037 19.3523 8.7793C19.8714 9.94824 20.2517 11.8472 19.9344 13.0645C19.6453 14.1733 18.2737 15.8442 17.0223 15.8442Z" fill="#009DE0"/>
<path d="M3.34385 30.25C3.03379 30.25 2.74375 30.0567 2.63584 29.7476C1.61436 26.8262 1.33848 24.2788 1.01914 21.3296L0.901957 20.2603C0.66807 18.1655 0.426371 15.999 0.528422 13.8267C0.531351 13.7617 0.885355 7.30958 2.77207 7.05177C4.23643 6.86573 6.52012 10.0068 7.13877 11.4468C7.89756 13.2119 8.19737 15.0899 8.48741 16.9058C8.84776 19.1641 9.12217 20.9937 9.39659 22.8228C9.67002 24.6475 9.94346 26.4722 10.3033 28.7256C10.3688 29.1348 10.0899 29.5191 9.68077 29.5845C9.27598 29.6528 8.8878 29.3716 8.82188 28.9619C8.46153 26.7036 8.18711 24.874 7.9127 23.0449C7.63926 21.2202 7.36582 19.3955 7.00596 17.1421C6.73057 15.417 6.4459 13.6328 5.76084 12.0396C5.16026 10.6421 3.70616 9.02589 3.06651 8.62501C2.66954 9.37452 2.1212 11.8779 2.02647 13.897C1.93028 15.9507 2.16514 18.0571 2.39317 20.0938L2.51036 21.168C2.81993 24.0254 3.08702 26.4932 4.05186 29.2525C4.18858 29.6436 3.98252 30.0713 3.59141 30.208C3.50938 30.2368 3.42588 30.25 3.34385 30.25Z" fill="#009DE0"/>
<path d="M1.9907 15.4673C1.76706 15.4673 1.53806 15.4575 1.30417 15.4351C0.892065 15.396 0.58933 15.0303 0.628393 14.6177C0.666967 14.2051 1.03611 13.8965 1.44578 13.9419C2.62449 14.0503 3.68894 13.7759 4.81492 13.4834C5.40085 13.331 6.00632 13.1733 6.63913 13.0698C7.04343 13.0005 7.43357 13.2803 7.49997 13.6894C7.56687 14.0981 7.28953 14.4834 6.88035 14.5503C6.31687 14.6421 5.77097 14.7847 5.19285 14.9351C4.18601 15.1973 3.15037 15.4673 1.9907 15.4673Z" fill="#009DE0"/>
<path d="M23.6555 33.8633C23.303 33.8633 22.989 33.6138 22.9197 33.2544C22.8421 32.8477 23.1087 32.4546 23.5154 32.3765L27.7688 31.5615C28.1697 31.4829 28.5676 31.7495 28.6463 32.1568C28.7244 32.5635 28.4583 32.9566 28.051 33.0342L23.7976 33.8501C23.7503 33.8589 23.7024 33.8633 23.6555 33.8633Z" fill="#009DE0"/>
<path d="M23.666 37.2519C23.293 37.2519 22.9702 36.9741 22.9228 36.5947C22.8716 36.1836 23.1631 35.8091 23.5742 35.7578L27.4927 35.2705C27.9048 35.2227 28.2783 35.5112 28.3291 35.9224C28.3804 36.3335 28.0884 36.708 27.6772 36.7588L23.7598 37.2461C23.728 37.25 23.6968 37.2519 23.666 37.2519Z" fill="#009DE0"/>
<path d="M22.9867 40.9312C22.6298 40.9312 22.3139 40.6758 22.2494 40.312C22.1772 39.9043 22.4491 39.5151 22.8568 39.4429L27.1064 38.6904C27.516 38.6182 27.9032 38.8901 27.9755 39.2979C28.0478 39.7056 27.7758 40.0947 27.3681 40.167L23.1186 40.9194C23.0741 40.9273 23.0302 40.9312 22.9867 40.9312Z" fill="#009DE0"/>
<path d="M22.5828 45.3335C22.2249 45.3335 21.908 45.0762 21.8445 44.7114C21.7742 44.3032 22.0476 43.915 22.4558 43.8442C23.0896 43.7349 23.8514 43.6323 24.6126 43.5298C25.3548 43.4297 26.0965 43.3301 26.7137 43.2231C27.1258 43.1548 27.51 43.4263 27.5808 43.8345C27.6512 44.2427 27.3777 44.6309 26.9695 44.7017C26.3357 44.811 25.574 44.9136 24.8128 45.0161C24.0706 45.1162 23.3289 45.2158 22.7117 45.3228C22.6682 45.3301 22.6253 45.3335 22.5828 45.3335Z" fill="#009DE0"/>
<path d="M22.0828 49.3316C21.6839 49.3316 21.3518 49.0176 21.3343 48.6148C21.3157 48.2012 21.636 47.8506 22.0501 47.8325L25.8006 47.6655C26.1995 47.645 26.5642 47.9683 26.5833 48.3818C26.6014 48.7959 26.2806 49.146 25.867 49.1646L22.1165 49.3306C22.1053 49.3316 22.094 49.3316 22.0828 49.3316Z" fill="#009DE0"/>
<path d="M21.9172 54.3408C21.5554 54.3408 21.2371 54.0786 21.1775 53.7095C21.1121 53.3008 21.3904 52.916 21.7996 52.8501L25.1404 52.314C25.5466 52.2461 25.9338 52.5264 25.9998 52.936C26.0652 53.3447 25.7869 53.7295 25.3777 53.7954L22.0369 54.3315C21.9968 54.3379 21.9568 54.3408 21.9172 54.3408Z" fill="#009DE0"/>
<path d="M21.1708 57.9614C20.7963 57.9614 20.4726 57.6812 20.4272 57.2998C20.3784 56.8887 20.6718 56.5156 21.0834 56.4668L24.4096 56.0718C24.8261 56.0166 25.1938 56.3164 25.2426 56.728C25.2914 57.1397 24.9975 57.5127 24.5864 57.561L21.2602 57.9561C21.2304 57.96 21.2006 57.9614 21.1708 57.9614Z" fill="#009DE0"/>
<path d="M13.5386 13.3345C13.2041 13.3345 12.899 13.1089 12.8125 12.77C12.4956 11.5293 12.1363 10.1231 12.2652 8.69581C12.4185 6.99952 13.3111 5.55031 14.5943 4.91359C14.9668 4.7295 15.4156 4.88185 15.5997 5.25197C15.7837 5.62306 15.6319 6.07325 15.2613 6.25734C14.2813 6.74318 13.8428 7.90529 13.7593 8.83058C13.6534 10.0015 13.9649 11.2202 14.2657 12.3989C14.3682 12.8003 14.126 13.2085 13.7247 13.311C13.6626 13.3272 13.6001 13.3345 13.5386 13.3345Z" fill="#009DE0"/>
<path d="M5.0327 26.7573C4.66747 26.7573 4.34715 26.4897 4.29198 26.1177L3.06737 17.8765C3.00633 17.4668 3.28905 17.085 3.69872 17.0244C4.10985 16.9585 4.49022 17.2466 4.55077 17.6558L5.77538 25.897C5.83641 26.3066 5.5537 26.6885 5.14403 26.749C5.10643 26.7549 5.06932 26.7573 5.0327 26.7573Z" fill="#009DE0"/>
</g>
<defs>
<clipPath id="clip0_125_16">
<rect width="31" height="64" fill="white"/>
</clipPath>
</defs>
</svg>
