<svg width="43" height="46" viewBox="0 0 43 46" fill="none" xmlns="http://www.w3.org/2000/svg">
<g clip-path="url(#clip0_64_1774)">
<path d="M42.19 19.8465C42.19 18.0225 41.3923 16.3131 40.0328 15.1753C40.092 14.884 40.1213 14.6041 40.1213 14.3287C40.1213 12.0566 38.493 10.1696 36.3776 9.84455C36.4262 9.58355 36.4493 9.32751 36.4493 9.07246C36.4493 6.65346 34.6017 4.67708 32.2873 4.55154C32.2493 4.54509 32.2108 4.53963 32.1709 4.53963C32.1517 4.53963 32.1329 4.54212 32.1132 4.54261C32.094 4.54212 32.0752 4.53963 32.0555 4.53963C31.8352 4.53963 31.6136 4.55998 31.3794 4.60216C30.9725 2.37668 29.0938 0.71936 26.8413 0.71936C24.2874 0.71936 22.2095 2.86346 22.2095 5.49929V38.2081C22.2095 41.544 24.8394 44.2573 28.0719 44.2573C30.2166 44.2573 32.1632 43.0599 33.1913 41.158C33.4217 41.2096 33.6429 41.2414 33.865 41.2562C35.261 41.348 36.6205 40.8761 37.6765 39.92C38.7325 38.9638 39.3644 37.6404 39.4557 36.1935C39.4937 35.5906 39.4283 34.9857 39.262 34.3883C41.0874 33.053 42.1602 30.9387 42.1602 28.6219C42.1602 26.9422 41.574 25.3296 40.5036 24.0449C41.5808 22.9195 42.19 21.414 42.19 19.8465ZM40.7185 28.6229C40.7185 30.3517 39.9578 31.9375 38.6532 32.9989C37.6876 31.413 35.9747 30.4003 34.1199 30.4003C33.7217 30.4003 33.3986 30.7337 33.3986 31.1446C33.3986 31.5555 33.7217 31.8889 34.1199 31.8889C35.7265 31.8889 37.1898 32.9275 37.7659 34.4731C37.9631 35.013 38.0506 35.5593 38.0165 36.0977C37.9501 37.1477 37.4918 38.1078 36.7253 38.8015C35.9588 39.4957 34.9744 39.8406 33.9593 39.7711C33.6737 39.7518 33.3784 39.6882 33.0297 39.5716C32.6739 39.4515 32.2887 39.6332 32.142 39.9884C31.4472 41.6775 29.8492 42.7692 28.0714 42.7692C25.6343 42.7692 23.6516 40.7233 23.6516 38.2086V5.49979C23.6516 3.68517 25.0822 2.20847 26.8408 2.20847C28.4749 2.20847 29.8194 3.47974 29.9944 5.14004C28.6715 5.92206 27.7766 7.39033 27.7766 9.07295C27.7766 9.48431 28.0998 9.81726 28.4979 9.81726C28.8961 9.81726 29.2193 9.48431 29.2193 9.07295C29.2193 7.41414 30.5123 6.06348 32.1122 6.03122C33.7121 6.06348 35.0052 7.41414 35.0052 9.07246C35.0052 9.3811 34.9489 9.70065 34.8326 10.0505C34.8052 10.1328 34.7922 10.2192 34.7936 10.306C34.7941 10.3264 34.7951 10.3452 34.797 10.3631C34.7941 10.3735 34.7922 10.3805 34.7922 10.3805C34.7354 10.6112 34.7893 10.8563 34.9369 11.0394C35.0846 11.2225 35.3048 11.3217 35.5385 11.3064C35.5885 11.3029 35.6385 11.2964 35.727 11.2835C37.3538 11.2835 38.6777 12.6496 38.6777 14.3282C38.6777 14.6121 38.6282 14.9033 38.5228 15.2457C38.4252 15.5608 38.5411 15.9047 38.807 16.0893C39.9775 16.9026 40.6868 18.2373 40.7373 19.6828C40.7373 19.6848 40.7368 19.6868 40.7368 19.6887C40.7368 22.1846 38.7691 24.2156 36.3502 24.2156C33.9314 24.2156 31.9632 22.1846 31.9632 19.6887C31.9632 19.2774 31.64 18.9444 31.2418 18.9444C30.8437 18.9444 30.5205 19.2774 30.5205 19.6887C30.5205 23.0059 33.1355 25.7042 36.3502 25.7042C37.4216 25.7042 38.4228 25.3991 39.2865 24.8766C40.2098 25.9136 40.7185 27.24 40.7185 28.6229Z" fill="#E2121B"/>
<path d="M15.3478 0.719849C13.0953 0.719849 11.217 2.37717 10.8107 4.60264C10.576 4.56047 10.3543 4.54012 10.1341 4.54012C10.1148 4.54012 10.0961 4.5426 10.0764 4.5431C10.0571 4.5426 10.0384 4.54012 10.0187 4.54012C9.97874 4.54012 9.94027 4.54558 9.90228 4.55203C7.5878 4.67757 5.74074 6.65395 5.74074 9.07294C5.74074 9.32799 5.76431 9.58403 5.8124 9.84504C3.697 10.1701 2.06875 12.0571 2.06875 14.3292C2.06875 14.6041 2.09808 14.884 2.15723 15.1758C0.79778 16.3136 0 18.023 0 19.847C0 21.4145 0.608794 22.92 1.68548 24.0464C0.614564 25.3311 0.0283719 26.9437 0.0283719 28.6234C0.0283719 30.9402 1.10122 33.054 2.92664 34.3898C2.75977 34.9872 2.69485 35.5921 2.73332 36.1954C2.82469 37.6419 3.45608 38.9653 4.5121 39.9214C5.56811 40.8781 6.92371 41.35 8.32355 41.2577C8.54235 41.2428 8.76548 41.2101 8.99678 41.159C10.0249 43.0614 11.9715 44.2588 14.1162 44.2588C17.3487 44.2588 19.9786 41.545 19.9786 38.2095V5.49978C19.9796 2.86395 17.9017 0.719849 15.3478 0.719849ZM18.537 38.2085C18.537 40.7233 16.5543 42.7692 14.1172 42.7692C12.3394 42.7692 10.7414 41.6775 10.047 39.9884C9.93113 39.7071 9.66569 39.5349 9.38293 39.5349C9.30887 39.5349 9.23337 39.5463 9.15932 39.5716C8.81116 39.6882 8.5159 39.7517 8.22978 39.7711C7.21079 39.8401 6.23028 39.4952 5.46424 38.8015C4.69772 38.1078 4.23944 37.1477 4.17308 36.0977C4.13653 35.5221 4.23319 34.9386 4.46064 34.3635C4.46401 34.355 4.46305 34.3456 4.46593 34.3372C5.11127 32.8208 6.49765 31.8795 8.11918 31.8795C8.51783 31.8795 8.8405 31.546 8.8405 31.1352C8.8405 30.7243 8.51783 30.3909 8.11918 30.3909C6.22547 30.3909 4.5121 31.3867 3.52773 32.9905C2.22888 31.9291 1.47101 30.3472 1.47101 28.6229C1.47101 27.24 1.98074 25.9136 2.90307 24.877C3.76673 25.3995 4.7684 25.7047 5.83981 25.7047C9.05449 25.7047 11.6695 23.0063 11.6695 19.6892C11.6695 19.2779 11.3468 18.9449 10.9482 18.9449C10.5495 18.9449 10.2269 19.2779 10.2269 19.6892C10.2269 22.1851 8.25911 24.2161 5.83981 24.2161C3.4205 24.2161 1.45274 22.1851 1.45274 19.6892C1.45274 19.6882 1.45226 19.6872 1.45226 19.6862C1.50179 18.2398 2.21109 16.904 3.38203 16.0898C3.64795 15.9052 3.76337 15.5618 3.66623 15.2467C3.56043 14.9038 3.51138 14.6126 3.51138 14.3287C3.51138 12.6536 4.82948 11.2895 6.49044 11.2895C6.4938 11.2895 6.49765 11.2895 6.50102 11.2895C6.55055 11.2964 6.60008 11.3029 6.65057 11.3064C6.8838 11.3212 7.10644 11.2215 7.25359 11.0374C7.40122 10.8528 7.45412 10.6067 7.39497 10.3755C7.39497 10.375 7.39353 10.3685 7.39112 10.3601C7.39257 10.3427 7.39401 10.3269 7.39449 10.313C7.39689 10.2236 7.38391 10.1348 7.35554 10.0505C7.23917 9.69965 7.1829 9.3796 7.1829 9.07195C7.1829 7.41364 8.47551 6.06248 10.0759 6.03072C11.6762 6.06297 12.9688 7.41364 12.9688 9.07245C12.9688 9.4838 13.2915 9.81675 13.6902 9.81675C14.0888 9.81675 14.4115 9.4838 14.4115 9.07245C14.4115 7.38982 13.5166 5.92155 12.1937 5.13954C12.3687 3.47924 13.7133 2.20796 15.3473 2.20796C17.1059 2.20796 18.5365 3.68467 18.5365 5.49928L18.537 38.2085Z" fill="#E2121B"/>
</g>
<defs>
<clipPath id="clip0_64_1774">
<rect width="43" height="44.3703" fill="white" transform="translate(0 0.71936)"/>
</clipPath>
</defs>
</svg>
