<svg width="66" height="58" viewBox="0 0 66 58" fill="none" xmlns="http://www.w3.org/2000/svg">
<g clip-path="url(#clip0_64_1763)">
<path d="M45.2337 28.2834C45.2337 28.2834 43.7464 22.86 41.7993 17.1994C39.8522 11.5389 37.7256 6.03914 37.0474 4.37061C36.3693 2.70208 35.4305 2.60614 31.2865 4.57436C27.1426 6.54258 24.3341 8.9913 18.4533 13.8739C12.5725 18.7564 9.70457 21.5464 8.66776 22.5715C7.63095 23.5965 7.05953 24.5449 7.15984 25.2421C7.26016 25.9393 9.38748 27.5581 12.5821 30.8193C15.7768 34.0804 18.6711 37.5296 18.6711 37.5296C17.0708 38.5663 13.8762 42.6517 14.3058 46.2436C14.7355 49.8355 16.7427 52.4829 21.2225 51.6327C25.0829 50.8331 28.4839 48.4994 30.6914 45.1351C32.6873 42.3186 31.6905 39.7306 30.1411 37.8279C28.5918 35.9253 25.185 35.6398 25.185 35.6398C25.185 35.6398 23.6138 33.5986 22.3684 31.7248C21.123 29.851 17.3432 25.1848 17.4197 25.042C17.4963 24.8992 18.3678 23.832 24.2565 19.2448C27.1361 16.8487 30.2667 14.7929 33.5899 13.1158C35.1178 15.4441 36.4509 17.9024 37.5746 20.464C38.9877 23.2349 40.1696 26.1248 41.1074 29.1026C39.9523 29.7293 38.8315 30.4213 37.7502 31.1754C36.6838 32.0748 35.9573 33.3318 35.6972 34.7274C35.4371 36.123 35.66 37.5684 36.327 38.8118C37.9745 42.0346 39.8619 41.9681 42.5769 41.8817C44.1225 41.8191 45.6399 41.4348 47.038 40.7519C48.4362 40.069 49.6861 39.1016 50.7128 37.9078C52.5285 35.4598 52.4163 33.1105 50.3853 30.8322C48.9795 29.4315 47.1724 28.5374 45.2337 28.2834ZM27.4192 38.6203C27.4192 38.6203 26.9966 39.2278 27.1741 39.5977C27.6317 40.7298 28.1781 41.8216 28.808 42.862C29.0626 42.9506 29.3095 42.6747 29.0879 42.1432C28.8662 41.6116 27.9628 39.1485 27.9628 39.1485C27.9628 39.1485 28.7631 39.2116 29.2323 40.5609C29.7014 41.9102 29.938 42.0311 29.3077 43.1823C28.6693 44.2814 27.9059 45.2978 27.0337 46.2099C26.9938 46.1267 25.3197 41.6163 24.9848 41.4996C24.9085 41.4661 24.8258 41.4514 24.7431 41.4568C24.6604 41.4622 24.5801 41.4876 24.5086 41.5308C24.4371 41.5741 24.3765 41.634 24.3315 41.7059C24.2865 41.7777 24.2585 41.8594 24.2497 41.9444C24.2978 42.2538 26.459 46.8261 26.329 46.9271C26.1989 47.0281 25.4448 47.782 25.4005 47.6895C25.3561 47.5971 23.5627 42.6985 23.3977 42.5641C23.2327 42.4296 22.3408 42.9661 22.505 43.3082C23.3498 44.844 24.11 46.4276 24.782 48.0517C24.6473 48.1896 23.7459 48.8691 23.6081 48.6516C23.4702 48.4342 21.7954 44.1545 21.5766 44.0475C21.3579 43.9406 20.6539 44.4501 20.8447 44.8477C21.0356 45.2453 22.8554 49.0364 22.7389 49.0959C22.6224 49.1554 21.8334 49.6738 21.7224 49.4427C21.6114 49.2115 19.9084 45.2916 19.7922 45.282C19.6759 45.2723 19.0256 45.7774 19.1541 46.1147C19.2826 46.4521 20.9798 49.4998 20.6887 49.614C20.3976 49.7282 19.7981 49.7813 19.6245 49.5822C19.4508 49.3831 18.4376 46.3658 18.2144 46.2726C17.9911 46.1794 17.3183 46.7306 17.3982 46.897C17.4781 47.0635 18.3686 49.3604 18.3686 49.3604C17.7637 49.0701 17.2485 48.6125 16.8804 48.0384C16.5122 47.4643 16.3055 46.7962 16.283 46.1082C16.14 43.625 17.1798 41.7924 18.9571 40.0549C20.3587 38.7171 22.13 37.8641 24.024 37.615C25.1563 37.3932 27.4192 38.6203 27.4192 38.6203ZM30.6641 8.46212C30.6411 8.64662 32.7017 11.405 32.8573 11.6594C33.0129 11.9138 32.3823 11.9021 32.1314 12.0303C31.8805 12.1586 30.0667 9.19353 30.0134 9.08257C29.9602 8.97161 29.2876 9.45354 29.1434 9.73448C28.9993 10.0154 31.2311 12.4099 31.3692 12.5581C31.5073 12.7063 30.6431 12.9983 30.4191 13.1128C30.1951 13.2273 28.3085 10.5988 28.3085 10.5988C28.3085 10.5988 27.5196 11.071 27.447 11.3615C27.3744 11.6519 29.5405 13.677 29.5938 13.7879C29.647 13.8989 29.2532 13.962 29.1188 14.0306C28.9844 14.0993 26.9223 11.7794 26.7747 11.7742C26.6271 11.769 26.5222 12.3408 26.3285 12.7277C26.1348 13.1146 28.2843 14.7796 28.2843 14.7796C26.4095 15.9278 24.6078 17.1986 22.8904 18.5842C18.8856 21.6328 16.0268 24.3952 15.8103 24.8973C15.5938 25.3995 16.6638 26.3035 19.0676 29.3585C20.7253 31.4756 22.2484 33.7012 23.6273 36.0213C23.1648 35.9623 22.6957 35.9949 22.2451 36.1175C21.6852 36.2303 21.1542 36.4624 20.6863 36.799C19.6566 35.3324 18.5081 33.9586 17.2532 32.6925C14.1219 29.2147 9.64396 24.6749 9.64396 24.6749C9.64396 24.6749 9.94077 24.2238 12.5258 21.7512C16.3589 17.9485 20.4551 14.4387 24.782 11.2496C32.1102 5.59279 35.5475 4.84933 35.9006 4.91069C36.2537 4.97205 36.1536 5.43774 36.7699 6.88453C37.3863 8.33132 39.4839 14.4216 41.3216 19.4126C42.3891 22.228 43.1611 25.1534 43.6243 28.1387L42.9396 28.2698C42.9396 28.2698 42.4044 26.6434 41.6067 24.6329C40.4979 21.717 39.148 18.9049 37.5722 16.2278C35.5454 12.7958 35.0294 12.0231 34.6423 11.4956C34.2551 10.968 33.6853 11.478 33.6853 11.478C33.6853 11.478 31.7086 7.77859 31.5749 7.6627C31.4412 7.54681 30.6738 8.27295 30.6641 8.46212ZM49.8594 35.2464C49.7002 35.7384 49.4838 36.2086 49.2148 36.6468C49.2148 36.6468 47.7712 32.7095 47.3691 32.5925C46.9671 32.4756 46.2768 32.8975 46.4011 33.1564C46.5254 33.4153 48.5093 37.5485 48.5093 37.5485C48.5093 37.5485 47.5574 38.6108 47.4597 38.4074C46.8894 37.0343 46.2463 35.6946 45.5334 34.3944C45.3724 34.4076 44.5974 34.7691 44.7212 35.1665C44.8449 35.5638 46.7206 38.7506 46.4965 38.8651C46.2725 38.9796 45.568 39.6275 45.4932 39.3088C45.0854 38.0742 44.5997 36.8684 44.0395 35.6991C43.883 35.6754 43.283 35.8669 43.3046 36.0747C43.8139 37.2097 44.2577 38.3748 44.6336 39.5639C44.4633 39.6509 43.326 40.0249 43.1925 39.8398C43.059 39.6547 41.7707 36.0641 41.5874 36.0542C41.4041 36.0442 40.7102 36.2492 40.7007 36.3922C40.6912 36.5352 42.2408 39.6008 41.9899 39.729C41.3774 39.8603 40.7412 39.8081 40.1564 39.5785C39.5717 39.3489 39.0628 38.9516 38.6897 38.4333C37.6759 36.8327 36.5778 33.8243 41.7228 30.8032C42.7609 30.2219 43.9518 29.9982 45.1218 30.1646C46.2917 30.331 47.3796 30.8789 48.2265 31.7283C50.0495 33.3874 50.0586 34.5688 49.8594 35.2464ZM25.2833 40.564C25.9535 42.061 26.6959 43.5225 27.5079 44.9427C27.7081 45.2435 27.916 44.6305 28.0685 44.5065C27.5555 42.9235 26.8342 41.4208 25.9248 40.0404C25.5719 39.9098 25.2746 40.4994 25.2833 40.564ZM15.0317 36.0618C15.0911 35.6975 12.3183 33.2686 12.1085 33.1571C11.8987 33.0455 11.2069 33.8827 11.2286 34.0904C12.1885 35.1866 13.2448 36.1887 14.3839 37.0838C14.7053 36.8282 14.9335 36.468 15.0317 36.0618ZM13.8531 21.9825C12.8636 22.7556 11.9389 23.6134 11.0889 24.5467C10.8552 24.8735 12.5337 26.9289 12.7968 27.1283C13.06 27.3278 13.7696 26.5045 13.8509 26.2787C13.9322 26.0529 12.8047 24.9825 12.7747 24.6179C12.7447 24.2532 13.8559 23.6853 14.234 23.0084C14.3077 22.9251 14.3583 22.823 14.3806 22.7126C14.4029 22.6022 14.3961 22.4877 14.3608 22.381C14.3256 22.2743 14.2632 22.1793 14.1802 22.106C14.0972 22.0326 13.9966 21.9837 13.889 21.9641L13.8531 21.9825ZM38.9932 4.2628C39.7006 6.36027 40.582 8.39089 41.6275 10.3321C41.7074 10.4985 42.1578 9.64657 42.2298 9.51764C42.3018 9.38871 40.3205 4.51714 40.2763 4.37853C40.2321 4.23992 38.9852 4.01357 39.0291 4.24448L38.9932 4.2628ZM44.4137 43.4532C43.7774 43.7784 44.2267 44.4354 44.6156 44.5016C45.7239 44.4895 46.8107 44.1839 47.7717 43.6139C48.7343 43.2304 49.5382 42.5143 50.0465 41.5877C50.0198 41.5322 49.007 42.119 47.4929 42.8007C46.5049 43.1793 45.4664 43.3994 44.4137 43.4532Z" fill="#372D86"/>
</g>
<g clip-path="url(#clip1_64_1763)">
<path d="M52.1781 12.8526C52.1781 12.8526 52.3471 11.0502 52.6483 9.1457C52.9494 7.24116 53.3163 5.37686 53.438 4.8093C53.5597 4.24175 53.8512 4.15591 55.2704 4.53308C56.6897 4.91025 57.7135 5.51827 59.8437 6.71402C61.9739 7.90977 63.0354 8.62217 63.4201 8.8849C63.8048 9.14763 64.0381 9.41365 64.0451 9.63998C64.0521 9.86631 63.4695 10.5038 62.6407 11.7236C61.8119 12.9434 61.0885 14.2049 61.0885 14.2049C61.652 14.438 62.8887 15.5406 62.9524 16.7015C63.016 17.8623 62.5285 18.8179 61.0652 18.814C59.8004 18.7895 58.5957 18.2529 57.711 17.3199C56.9237 16.5476 57.0951 15.6705 57.4792 14.9774C57.8633 14.2844 58.9244 13.9927 58.9244 13.9927C58.9244 13.9927 59.3077 13.2545 59.5974 12.5885C59.887 11.9226 60.8227 10.224 60.7906 10.1834C60.7585 10.1428 60.4237 9.85693 58.3075 8.75501C57.2641 8.16781 56.1603 7.70304 55.0166 7.3694C54.6629 8.19575 54.378 9.05168 54.1651 9.92791C53.8722 10.8874 53.6591 11.8708 53.528 12.8676C53.928 12.9974 54.3207 13.1499 54.7044 13.3244C55.0914 13.5456 55.3909 13.9 55.5506 14.3258C55.7103 14.7516 55.7202 15.2217 55.5783 15.6542C55.2365 16.7704 54.6362 16.861 53.7731 16.9942C53.281 17.0658 52.78 17.0341 52.3001 16.9008C51.8202 16.7676 51.3714 16.5357 50.9805 16.219C50.2706 15.5526 50.1756 14.8033 50.6911 13.963C51.0577 13.4371 51.5793 13.0476 52.1781 12.8526ZM58.3836 15.067C58.3836 15.067 58.551 15.234 58.5154 15.3614C58.4336 15.7464 58.3215 16.1238 58.1802 16.49C58.1046 16.533 58.0112 16.4604 58.0518 16.2793C58.0923 16.0981 58.2411 15.2661 58.2411 15.2661C58.2411 15.2661 57.9916 15.3334 57.9183 15.7876C57.8449 16.2419 57.7768 16.2941 58.04 16.6208C58.3028 16.9305 58.6006 17.2067 58.927 17.4434C58.935 17.4147 59.2137 15.8899 59.3131 15.8332C59.3353 15.8181 59.3607 15.8086 59.3871 15.8054C59.4136 15.8022 59.4404 15.8055 59.4654 15.815C59.4904 15.8244 59.5129 15.8398 59.5311 15.8598C59.5493 15.8799 59.5627 15.904 59.5702 15.9304C59.5722 16.031 59.1429 17.6042 59.1896 17.6284C59.2363 17.6527 59.5165 17.8464 59.5254 17.8146C59.5343 17.7827 59.8292 16.1282 59.8739 16.0759C59.9186 16.0236 60.2303 16.1405 60.1974 16.2583C60.0157 16.7938 59.8633 17.3394 59.7411 17.8925C59.7913 17.9281 60.114 18.0896 60.1455 18.0127C60.177 17.9358 60.4688 16.4839 60.532 16.4372C60.5952 16.3904 60.846 16.5098 60.8078 16.6468C60.7695 16.7838 60.4048 18.0898 60.4449 18.1018C60.4851 18.1137 60.7633 18.2309 60.7855 18.1513C60.8077 18.0717 61.1284 16.7318 61.1646 16.7219C61.2008 16.7119 61.4345 16.8332 61.4126 16.9474C61.3907 17.0617 61.0234 18.1254 61.1218 18.1443C61.2202 18.1632 61.4126 18.1446 61.4564 18.0713C61.5003 17.9981 61.653 16.9844 61.7184 16.9417C61.7838 16.8991 62.0271 17.0335 62.0111 17.0909C61.9951 17.1482 61.8411 17.927 61.8411 17.927C62.0162 17.7994 62.1537 17.6243 62.2382 17.4211C62.3227 17.2178 62.3509 16.9944 62.3198 16.7756C62.2271 15.9821 61.7967 15.4643 61.1383 15.0201C60.621 14.6801 60.0137 14.5152 59.4011 14.5484C59.0309 14.5453 58.3836 15.067 58.3836 15.067ZM55.6831 5.72527C55.7006 5.78224 55.2024 6.77604 55.1673 6.86566C55.1323 6.95529 55.331 6.91431 55.4174 6.94002C55.5038 6.96572 55.9126 5.92116 55.9232 5.88294C55.9339 5.84471 56.1733 5.95729 56.2345 6.03757C56.2956 6.11786 55.7231 7.00676 55.6877 7.06177C55.6522 7.11679 55.9416 7.15799 56.0188 7.18094C56.096 7.20389 56.5464 6.26143 56.5464 6.26143C56.5464 6.26143 56.822 6.36408 56.8611 6.4516C56.9002 6.53912 56.3279 7.30734 56.3172 7.34557C56.3065 7.38379 56.4345 7.38045 56.4808 7.39422C56.5271 7.40799 57.0502 6.55267 57.0965 6.54231C57.1429 6.53194 57.2078 6.7065 57.2906 6.81735C57.3733 6.92819 56.7862 7.58163 56.7862 7.58163C57.4426 7.83374 58.0828 8.12894 58.7026 8.46542C60.1379 9.19234 61.195 9.89652 61.2914 10.0425C61.3877 10.1884 61.0996 10.5375 60.5094 11.6453C60.1029 12.4126 59.7451 13.2062 59.438 14.0212C59.5809 13.9752 59.731 13.9578 59.8803 13.9699C60.0636 13.9724 60.2443 14.0144 60.4109 14.0931C60.6549 13.5686 60.9417 13.0664 61.2681 12.592C62.0648 11.3074 63.2283 9.60757 63.2283 9.60757C63.2283 9.60757 63.1094 9.48252 62.155 8.85371C60.7321 7.87826 59.2422 7.01095 57.6973 6.25866C55.0666 4.90373 53.9387 4.87195 53.8305 4.91222C53.7223 4.9525 53.7798 5.09379 53.6653 5.58759C53.5508 6.08139 53.2259 8.13068 52.9222 9.81709C52.741 10.7702 52.6595 11.7406 52.6788 12.7117L52.9026 12.7127C52.9026 12.7127 52.9814 12.1669 53.1219 11.4842C53.3105 10.4968 53.5811 9.52808 53.9306 8.5886C54.3807 7.38385 54.5009 7.10909 54.594 6.91942C54.6871 6.72975 54.8955 6.85729 54.8955 6.85729C54.8955 6.85729 55.3149 5.57096 55.3508 5.52641C55.3866 5.48187 55.6695 5.66605 55.6831 5.72527ZM51.1025 15.3273C51.1801 15.4734 51.2747 15.6092 51.384 15.7318C51.384 15.7318 51.6217 14.4018 51.7423 14.3411C51.863 14.2804 52.1046 14.3729 52.0797 14.4621C52.0548 14.5513 51.6571 15.9752 51.6571 15.9752C51.6571 15.9752 52.0171 16.2547 52.0366 16.1846C52.1407 15.7168 52.2696 15.2553 52.4227 14.8021C52.4743 14.7968 52.7394 14.8653 52.7224 14.9982C52.7053 15.1311 52.2893 16.2494 52.3665 16.2724C52.4437 16.2953 52.7024 16.4585 52.7084 16.3533C52.7687 15.9389 52.8553 15.529 52.9674 15.1263C53.0156 15.1095 53.2159 15.1346 53.2206 15.2015C53.1226 15.5904 53.047 15.985 52.9942 16.3831C53.0529 16.4006 53.4332 16.4515 53.4651 16.3851C53.497 16.3187 53.7049 15.1075 53.7623 15.0935C53.8197 15.0795 54.0504 15.1033 54.0614 15.1479C54.0723 15.1926 53.7527 16.2533 53.8391 16.279C54.0401 16.2843 54.2383 16.2302 54.4104 16.123C54.5825 16.0159 54.7213 15.8602 54.8104 15.6743C55.042 15.1083 55.2221 14.0924 53.4279 13.4416C53.0675 13.3192 52.6786 13.3189 52.318 13.4407C51.9573 13.5625 51.6439 13.8 51.4233 14.1186C50.9392 14.7509 51.0019 15.1249 51.1025 15.3273ZM59.1668 15.5551C59.0381 16.068 58.8845 16.5739 58.7067 17.0709C58.6601 17.1778 58.5603 16.9963 58.5053 16.9661C58.5795 16.4354 58.7241 15.9177 58.9349 15.4275C59.0392 15.3654 59.1659 15.5342 59.1668 15.5551ZM62.1575 13.5257C62.1185 13.4141 62.8601 12.4823 62.9203 12.4346C62.9804 12.387 63.2455 12.6107 63.2503 12.6777C63.0077 13.081 62.7294 13.4602 62.419 13.8105C62.3032 13.7487 62.2111 13.6484 62.1575 13.5257ZM61.7482 9.00531C62.1039 9.1912 62.4439 9.40769 62.7644 9.65247C62.8564 9.74194 62.44 10.4909 62.3679 10.5696C62.2958 10.6482 62.0257 10.4299 61.9875 10.3633C61.9492 10.2967 62.2462 9.89169 62.2355 9.77464C62.2247 9.65759 61.8419 9.54376 61.6848 9.35214C61.6568 9.33017 61.6352 9.30087 61.622 9.2673C61.6088 9.23373 61.6046 9.19712 61.6098 9.1613C61.615 9.12548 61.6295 9.09177 61.6517 9.06368C61.6738 9.03559 61.7029 9.01416 61.7358 9.00163L61.7482 9.00531ZM52.8169 4.89027C52.7098 5.59515 52.5439 6.28918 52.3212 6.96466C52.3052 7.022 52.1155 6.7793 52.0856 6.7428C52.0556 6.7063 52.4114 5.04916 52.4177 5.00273C52.424 4.95629 52.8056 4.81101 52.8046 4.8866L52.8169 4.89027ZM53.2797 17.5996C53.4989 17.6648 53.3934 17.8991 53.2741 17.9429C52.9231 18.0047 52.5626 17.9723 52.2271 17.849C51.9016 17.7846 51.6077 17.6058 51.3955 17.3429C51.4009 17.3238 51.7536 17.4494 52.2701 17.5754C52.6035 17.6367 52.944 17.6448 53.2797 17.5996Z" fill="#372D86"/>
</g>
<defs>
<clipPath id="clip0_64_1763">
<rect width="42.9999" height="43.0562" fill="white" transform="matrix(0.893518 -0.449027 0.438693 0.898637 0 19.3081)"/>
</clipPath>
<clipPath id="clip1_64_1763">
<rect width="13.7898" height="13.8562" fill="white" transform="matrix(-0.959818 -0.280625 -0.273211 0.961954 66 7.09399)"/>
</clipPath>
</defs>
</svg>
