<svg width="60" height="60" viewBox="0 0 60 60" fill="none" xmlns="http://www.w3.org/2000/svg">
<g clip-path="url(#clip0_127_55)">
<path d="M2.63109 59.4395C1.64085 59.4395 0.866437 59.1387 0.330304 58.5449C-0.246844 57.9053 -0.744891 56.6787 0.161359 54.4678C2.32054 49.2119 6.48069 45.0039 10.1516 41.291L42.0852 8.99512C44.3176 6.73633 46.758 4.5293 49.8703 4.49414H49.8723C51.6526 4.49414 53.3459 5.30859 54.5764 6.72949C55.7776 8.11523 56.3303 9.85742 56.092 11.5078C55.7307 14.0166 53.9338 15.8887 51.966 17.7422L16.344 51.2822C13.094 54.3438 9.04808 58.1543 3.99339 59.2764C3.50804 59.3848 3.04905 59.4395 2.63109 59.4395ZM49.9299 5.99414C47.344 6.02246 45.1653 8.01367 43.1516 10.0498L11.218 42.3457C7.64476 45.96 3.59495 50.0557 1.54905 55.0371C1.21312 55.8584 0.921124 56.96 1.44359 57.5391C1.81859 57.9531 2.61155 58.0479 3.66819 57.8115C8.31956 56.7793 12.1994 53.126 15.3157 50.1904L50.9377 16.6504C52.7043 14.9863 54.3147 13.3242 54.6076 11.2939C54.7834 10.0742 54.3586 8.76855 53.4426 7.71191C52.511 6.63574 51.1975 5.99414 49.9299 5.99414Z" fill="#373684"/>
<path d="M54.7704 9.1377C54.5165 9.1377 54.2694 9.00879 54.1278 8.77637C53.913 8.42188 54.0262 7.96094 54.3807 7.7461C55.6659 6.9668 56.829 5.92188 57.743 4.72266C58.0965 4.25977 58.5018 3.65137 58.5038 3.0459C58.5048 2.59864 58.2616 2.13086 57.8827 1.85547C57.4989 1.57422 56.9764 1.47559 56.4891 1.58203C55.7938 1.73828 55.1581 2.30469 54.5975 2.80469L51.5272 5.54493C51.2186 5.82032 50.744 5.79297 50.4686 5.48438C50.1932 5.17579 50.2196 4.70118 50.5292 4.42579L53.5995 1.68555C54.2616 1.09473 55.0858 0.359379 56.161 0.119144C57.0604 -0.0839808 58.037 0.112308 58.7674 0.642582C59.5321 1.20118 60.0067 2.12403 60.0038 3.05078C59.9999 4.10352 59.4315 4.9834 58.9364 5.63282C57.8944 6.99805 56.6229 8.14161 55.1581 9.0293C55.037 9.10254 54.9022 9.1377 54.7704 9.1377Z" fill="#373684"/>
<path d="M12.3152 54.6426C12.1189 54.6426 11.9216 54.5654 11.7752 54.4131L5.33863 47.7236C5.05152 47.4248 5.06031 46.9502 5.35816 46.6631C5.65601 46.376 6.13257 46.3848 6.41871 46.6826L12.8552 53.3721C13.1423 53.6709 13.1336 54.1455 12.8357 54.4326C12.6902 54.5732 12.5027 54.6426 12.3152 54.6426Z" fill="#373684"/>
<path d="M24.4235 21.2969C24.233 21.2969 24.0426 21.2246 23.8961 21.0801C23.6022 20.7891 23.5993 20.3145 23.8903 20.0195L28.7711 15.0781C30.9352 12.8867 33.1735 10.6201 35.8551 8.90528C38.0016 7.53418 41.3473 5.98438 45.0787 6.35157C45.4909 6.39258 45.7916 6.75977 45.7506 7.17188C45.7096 7.58399 45.3356 7.89063 44.9303 7.84375C41.6188 7.5127 38.608 8.92578 36.6637 10.1689C34.1227 11.7939 31.944 13.999 29.8375 16.1328L24.9567 21.0742C24.8102 21.2227 24.6168 21.2969 24.4235 21.2969Z" fill="#373684"/>
<path d="M0.28418 59.8897L-0.289062 59.3994L-0.805664 58.8565L0.412109 57.6973C0.712891 57.4111 1.18652 57.4238 1.47266 57.7246C1.75781 58.0254 1.74512 58.5 1.44531 58.7852L0.28418 59.8897Z" fill="#373684"/>
<path d="M36.8259 30.9229C36.615 30.9229 36.404 30.834 36.2556 30.6602L29.655 22.9375C29.3865 22.6231 29.4236 22.1494 29.738 21.8799C30.0535 21.6143 30.5261 21.6475 30.7957 21.9629L37.3962 29.6856C37.6648 30 37.6277 30.4736 37.3132 30.7432C37.1716 30.8633 36.9988 30.9229 36.8259 30.9229Z" fill="#373684"/>
<path d="M46.4384 10.7861C46.2714 10.7861 46.1034 10.7305 45.9638 10.6172C45.6435 10.3545 45.5956 9.8828 45.8573 9.56152C46.4316 8.85839 47.3417 7.87987 48.6142 7.4912C49.8095 7.12304 51.4208 7.40722 52.1855 8.65331C52.4023 9.00585 52.2919 9.46777 51.9394 9.68456C51.5868 9.90136 51.1259 9.79101 50.9081 9.43847C50.5585 8.86913 49.6903 8.73046 49.0517 8.9248C48.3808 9.12987 47.7353 9.63378 47.0194 10.5107C46.871 10.6924 46.6552 10.7861 46.4384 10.7861Z" fill="#373684"/>
</g>
<defs>
<clipPath id="clip0_127_55">
<rect width="60" height="60" fill="white"/>
</clipPath>
</defs>
</svg>
