<svg width="50" height="56" viewBox="0 0 50 56" fill="none" xmlns="http://www.w3.org/2000/svg">
<g clip-path="url(#clip0_64_1818)">
<path d="M47.2802 11.9999C46.4502 11.7099 39.5702 10.9999 37.8202 10.7899C36.0702 10.5799 30.8202 10.4199 30.4902 10.2899C30.1602 10.1599 31.2002 2.16995 31.4902 1.95995C32.4055 1.81318 33.3411 1.85401 34.2402 2.07995C34.4502 2.24995 34.0302 9.74995 34.1102 9.86995C34.1902 9.98995 34.9902 10.2899 35.2402 10.0799C35.4902 9.86995 35.8202 2.28995 35.7002 1.28995C35.5802 0.289949 31.1602 0.289949 30.4902 0.709949C29.8202 1.12995 29.1102 9.91995 29.1102 10.0799C27.1688 10.2041 25.2215 10.2041 23.2802 10.0799C22.9902 9.99995 23.6102 0.999949 23.2802 0.329949C22.9502 -0.340051 18.8202 0.459949 18.4502 0.659949C18.0802 0.859949 17.4502 9.74995 17.3602 10.0399C17.2702 10.3299 11.6102 10.1199 9.15019 10.2499C7.16907 10.3303 5.263 11.0298 3.70019 12.2499C3.03019 12.9599 2.70019 20.5399 2.32019 24.9099C1.94019 29.2799 0.820186 32.56 0.660186 36.2299C0.500186 39.8999 1.20019 40.6399 2.00019 41.3899C2.80019 42.1399 8.00019 41.8899 8.00019 41.8899C8.00019 41.8899 7.75019 43.3099 8.00019 43.5999C8.25019 43.8899 13.3302 44.02 13.3302 44.02C13.3302 44.02 10.2002 54.77 10.2002 55.31C10.2002 55.85 13.2802 56.0599 13.7002 55.8899C14.1202 55.72 14.7002 54.0599 15.0302 53.3499C15.3602 52.6399 18.7802 43.6399 18.7802 43.6399C18.7802 43.6399 23.2402 43.2299 23.3602 43.2299C23.4802 43.2299 23.5302 47.06 23.7002 47.4799C23.8702 47.8999 27.2402 47.7299 27.5302 47.56C27.8202 47.39 27.6102 43.6399 27.6102 43.6399L32.3202 44.2299C32.3202 44.2299 34.0002 55.0599 34.0702 55.3499C34.1402 55.6399 36.6102 55.3499 37.0702 55.2299C37.5302 55.11 37.9902 55.31 38.1602 54.81C38.3302 54.31 36.9902 44.81 36.9902 44.81C37.729 45.0281 38.5187 45 39.2402 44.7299C40.7402 44.31 40.3202 42.4799 40.3202 42.4799L42.4902 42.5999C43.3602 42.5999 45.3602 42.9799 46.9502 42.06C48.5402 41.14 48.0702 40.44 48.2002 37.06C48.3302 33.68 49.0002 21.5599 49.3202 16.8499C49.6402 12.1399 48.1102 12.3099 47.2802 11.9999ZM19.6702 1.44995C19.7302 1.34995 21.7902 0.81995 22.1002 1.25995C22.4102 1.69995 22.4502 9.94995 22.2002 9.94995L18.6002 9.99995C18.6002 9.78995 19.6002 1.53995 19.6702 1.44995ZM14.0002 52.7C13.7544 53.3865 13.4603 54.0549 13.1202 54.7C13.0302 54.7 11.8702 54.57 11.8702 54.41C11.8702 54.25 14.7902 44.1699 14.9202 44C15.0502 43.83 16.7902 43.7799 16.9202 44C16.122 46.9558 15.1469 49.8611 14.0002 52.7ZM26.1502 46.4199C25.9402 46.4199 24.7802 46.6299 24.7802 46.3499C24.7802 46.07 24.6902 43.63 24.7202 43.4799C24.7502 43.3299 26.2202 43.6699 26.2202 43.6699C26.2202 43.6699 26.3502 46.3799 26.1302 46.4199H26.1502ZM36.7002 54.07C36.0872 54.1535 35.4673 54.1736 34.8502 54.13C34.8502 54.04 33.4202 44.3499 33.4202 44.3499C34.1927 44.4219 34.9564 44.5692 35.7002 44.79C35.7302 45 36.8202 54 36.7002 54.07ZM38.7002 43.63C38.3502 43.7 31.6002 42.3499 26.9802 42.1699C23.0803 42.0815 19.1784 42.195 15.2902 42.5099C10.4502 42.7299 9.64019 43.2 9.48019 42.57C9.38208 41.4984 9.47691 40.418 9.76019 39.38C10.0402 39.01 10.9202 39.1 15.7602 39.29C20.6002 39.4799 26.7602 40.01 30.4202 40.29C34.0802 40.57 38.7302 40.66 38.8502 40.88C38.9702 41.1 39.0702 43.57 38.7302 43.63H38.7002ZM46.6402 29.7899C46.525 30.609 46.4516 31.4334 46.4202 32.2599C46.4202 32.2599 45.3202 32.32 45.3202 32.82C45.3202 33.32 46.0002 36.2 46.0002 36.29C46.0002 36.38 45.8102 39.57 45.8102 39.4799C45.8102 39.3899 45.1302 34.13 44.8102 34.07C44.4902 34.0099 43.8102 34.57 43.8702 35.0099C43.9302 35.4499 45.4102 40.45 45.2502 40.63C45.0902 40.81 45.0002 41 45.0002 40.82C45.0002 40.6399 43.7802 36.54 43.4702 36.45C43.1602 36.36 42.4002 36.85 42.5302 37.04C42.6602 37.2299 44.0002 40.7599 43.5902 40.7299C43.1802 40.7 42.3702 40.7299 42.3402 40.54C42.0586 39.3003 41.7046 38.0782 41.2802 36.88C41.1202 36.88 40.4002 36.9799 40.4302 37.2C40.4602 37.42 41.4302 40.57 41.3102 40.63C41.1902 40.69 40.5602 40.95 40.5302 40.57C40.301 39.1832 39.9667 37.816 39.5302 36.4799C39.3402 36.38 38.5902 36.4199 38.6502 36.5999C38.8558 37.5268 38.973 38.471 39.0002 39.4199H38.3402C38.3402 39.4199 37.9002 36.6299 37.5602 36.4199C37.2202 36.2099 36.6502 36.6399 36.7202 36.8899C36.9198 37.7609 37.0436 38.6476 37.0902 39.54C36.9702 39.54 36.2502 39.5999 36.2502 39.4799C36.2502 39.36 35.7002 37 35.2902 37C34.8802 37 34.3502 37.6199 34.3502 37.6199C34.3502 37.6199 35.2602 39.5599 34.9502 39.5299C34.6402 39.5 34.1702 39.5299 34.1702 39.5299C34.1702 39.5299 33.7302 37.75 33.4202 37.75C33.1102 37.75 32.6702 37.93 32.6702 38.1199C32.6702 38.3099 32.9502 39.43 32.7902 39.47C32.6302 39.51 29.2302 39 22.4202 38.5999C15.6102 38.1999 11.2602 38 10.1702 38C9.08019 38 8.57019 38.4399 8.45019 38.7799C8.34149 39.1998 8.2679 39.6279 8.23019 40.06C7.02511 40.4194 5.76305 40.5483 4.51019 40.4399C3.01019 40.16 2.73019 39.19 2.45019 36.63C2.17019 34.07 4.07019 27.6299 4.45019 23.4099C4.83019 19.1899 5.32019 13.5899 5.76019 13.1299C6.20019 12.6699 6.51019 11.9999 11.0002 11.9999C15.4902 11.9999 20.3102 11.9999 26.0902 11.9999C30.1373 11.9932 34.1801 12.2638 38.1902 12.8099C42.7502 13.2799 47.1902 13.0899 47.1902 14.9699C47.1902 16.8499 46.8802 28 46.6702 29.7899H46.6402ZM7.42019 18.6699C7.76019 18.5699 8.04019 14.9799 8.10019 14.6699C8.16019 14.3599 10.9202 14.4199 11.0102 14.4199C11.1786 14.0682 11.221 13.6692 11.1302 13.29C11.0002 13 8.00019 12.9999 7.29019 13.3799C6.58019 13.7599 6.45019 18.5399 6.45019 18.5399C6.48019 18.6999 7.07019 18.7599 7.42019 18.6699ZM23.2302 17.2899C23.8725 17.4782 24.5508 17.5083 25.2073 17.3777C25.8637 17.2472 26.4788 16.9597 27.0002 16.5399C27.0002 16.5399 27.7802 16.6999 28.7502 16.8199C29.0552 16.8477 29.3627 16.8123 29.6535 16.7159C29.9443 16.6196 30.2121 16.4644 30.4402 16.2599C31.095 16.6308 31.7851 16.9356 32.5002 17.1699C33.9886 17.515 35.5421 17.4563 37.0002 16.9999C37.5602 16.7199 37.1902 16.3099 37.0902 16.1899C36.9902 16.0699 34.7902 16.32 33.0002 15.9999C31.2102 15.6799 31.0002 14.82 30.8802 14.5999C30.7602 14.3799 30.2002 14.3499 29.8202 14.7299C29.4402 15.1099 29.9802 15.4799 30.0102 15.5999C30.0402 15.7199 29.2602 15.95 28.4502 15.7C27.6188 15.4022 26.8542 14.9434 26.2002 14.3499C26.0702 14.1299 24.7002 14.45 24.5402 14.5999C24.3802 14.7499 26.2902 16.0699 26.2902 16.0699C26.2902 16.0699 24.1702 16.7899 23.0702 16.2899C22.2815 15.8499 21.5988 15.2423 21.0702 14.5099C20.9202 14.3499 20.3202 14.6999 20.2602 14.8199C20.5171 15.4421 20.9219 15.9922 21.4394 16.4226C21.957 16.853 22.5716 17.1507 23.2302 17.2899ZM40.6002 16.6299C40.2302 16.5699 39.5102 16.7899 38.3502 18.1699C37.1902 19.5499 33.7302 24.5699 33.5402 24.8499C33.3502 25.1299 32.0402 22.9199 30.7902 21.6299C29.5402 20.3399 27.5102 18.3499 26.8502 18.3499C26.1902 18.3499 21.6002 20.9199 21.6002 20.9199C21.2968 20.7086 21.0242 20.4562 20.7902 20.1699C20.2602 19.5699 16.7902 15.17 15.2902 14.7C13.7902 14.2299 12.6002 17.7599 11.6302 19.8199C10.6602 21.8799 7.17019 27.5999 7.17019 27.5999C7.51019 28.3199 8.26019 27.8799 8.76019 27.2299C9.26019 26.5799 14.6002 16.1999 15.1002 15.9999C15.6002 15.7999 21.0002 22.0999 21.6002 22.3499C22.2002 22.5999 26.5402 19.7899 26.8202 19.5099C27.1002 19.2299 29.0002 21.6299 29.2002 21.9999C29.4002 22.3699 27.7302 21.9999 26.9202 22.1499C26.1102 22.2999 25.1002 23.3399 24.8202 23.5299C24.5402 23.7199 23.5402 23.3399 22.5102 23.2799C21.6362 23.3705 20.7703 23.5276 19.9202 23.7499C19.2902 23.7499 18.5402 22.3699 17.5402 22.0599C16.5402 21.7499 15.9502 23.0599 15.2602 23.3999C14.5702 23.7399 13.9802 22.5899 13.1702 22.4699C12.3602 22.3499 11.2602 23.2499 10.7902 24.1199C10.3202 24.99 11.2002 25.0599 11.4502 24.9999C11.7002 24.9399 12.3202 23.7799 12.9802 23.6199C13.6402 23.4599 14.4802 24.5299 15.6702 24.6199C16.8602 24.7099 17.0002 23.3799 17.2002 23.2299C17.4002 23.0799 18.9202 24.5099 19.7002 24.9199C20.4802 25.3299 21.3802 24.5999 22.7002 24.5399C24.0202 24.4799 24.4802 24.8499 25.5102 24.6699C26.5402 24.4899 26.8202 23.32 27.8502 23.1999C28.8802 23.0799 29.2902 24.0699 29.8502 23.9799C30.4102 23.8899 30.1402 23.07 30.2602 23.0399C30.3802 23.0099 33.0002 26.5699 33.5402 26.5999C34.0802 26.6299 34.8202 24.9999 34.8202 24.9999C35.4413 24.7121 36.0791 24.4616 36.7302 24.2499C37.6302 23.9699 37.6002 24.5899 38.0102 24.9399C38.4202 25.2899 39.2002 25.0599 39.6002 24.8099C40.0002 24.5599 41.6002 24.9999 41.6002 24.9999C41.6002 24.9999 42.2302 29 42.2302 29.4C42.2302 29.7999 43.1002 29.7799 43.5102 29.65C43.9202 29.52 43.3502 27.9699 42.4502 22.2799C41.5502 16.5899 41.0002 16.6999 40.6002 16.6299ZM41.3502 23.4799C40.9502 23.5999 39.7602 23.4799 39.3502 23.5999C38.9402 23.7199 38.8202 23.8799 38.6702 23.8199C38.5202 23.7599 38.1702 23.2599 37.6702 23.1999C37.2479 23.1337 36.8304 23.0402 36.4202 22.9199C36.4202 22.8199 38.2602 20.3199 38.7302 19.5999C39.2002 18.8799 40.0002 18.0999 40.1002 18.2299C40.2002 18.3599 41.7602 23.3499 41.3502 23.4799ZM41.0002 34C40.123 33.368 39.1204 32.9315 38.0602 32.72C38.0602 32.72 38.0602 31 38.1202 30.8099C38.2647 30.5543 38.4467 30.3217 38.6602 30.1199C38.928 30.1693 39.1984 30.2027 39.4702 30.2199C39.7202 30.2199 39.7202 30.2199 39.9702 29.8399C40.2202 29.4599 39.8702 28.8399 38.9702 28.5299C38.082 28.3878 37.1716 28.5425 36.3802 28.9699C36.2589 29.0014 36.1462 29.0595 36.0503 29.1402C35.9544 29.2208 35.8778 29.3219 35.826 29.436C35.7742 29.5501 35.7486 29.6743 35.7511 29.7996C35.7535 29.9248 35.784 30.048 35.8402 30.1599C35.9371 30.3273 36.0734 30.4684 36.2372 30.5712C36.401 30.674 36.5874 30.7354 36.7802 30.7499V32.5C36.7802 32.5 35.0002 32.3099 33.6602 32.2799C32.6614 32.3325 31.6873 32.6094 30.8102 33.09C30.3893 32.4432 29.8849 31.8548 29.3102 31.3399C28.4702 30.6199 28.0302 30.2499 25.1602 29.5899C23.0596 29.281 20.9147 29.5293 18.9402 30.3099C18.5377 30.0646 18.1081 29.8667 17.6602 29.7199C16.8515 29.4809 16.0258 29.3037 15.1902 29.1899L15.3402 27.8399L16.0602 27.4399C16.7802 27.0299 16.7502 26.7799 16.4102 26.4399C16.0702 26.0999 15.3102 26.2799 15.3102 26.2799C15.158 26.103 14.9638 25.9671 14.7453 25.885C14.5269 25.8029 14.2912 25.777 14.0602 25.8099C13.9233 25.8265 13.7913 25.8713 13.6726 25.9413C13.5538 26.0113 13.4508 26.1052 13.37 26.2169C13.2893 26.3287 13.2325 26.4559 13.2033 26.5907C13.174 26.7254 13.173 26.8648 13.2002 26.9999C13.2902 27.5299 14.0402 27.6199 14.0402 27.6199L14.0002 29.2899C12.8349 29.4736 11.685 29.7443 10.5602 30.0999C9.26995 30.5465 8.095 31.274 7.12019 32.2299C6.69742 32.5465 6.41702 33.0174 6.34019 33.54C6.34019 33.76 7.00019 33.9199 7.25019 33.9199C8.37935 32.7871 9.71735 31.8838 11.1902 31.2599C13.2341 30.3942 15.5232 30.3017 17.6302 30.9999C18.9318 31.5934 20.0835 32.4717 21.0002 33.57C21.3402 33.9799 22.0002 33.42 22.2202 33.13C22.4402 32.84 20.2202 31.2599 20.2202 31.2599C20.2202 31.2599 21.6202 30.4799 24.8702 30.8199C26.8736 31.0755 28.7062 32.0793 30.0002 33.63C30.0002 33.63 29.7502 33.92 29.6502 33.95C29.5502 33.9799 29.8402 34.4799 30.1802 34.5999C30.5202 34.7199 30.7802 34.3499 32.4302 33.82C34.0802 33.29 34.1502 33.51 36.9302 33.7C38.6752 33.9196 40.2919 34.7315 41.5102 36C41.6002 36 41.8202 36 42.0702 35.56C42.3202 35.12 42.2302 35 41.0002 34Z" fill="#009DE0"/>
</g>
<defs>
<clipPath id="clip0_64_1818">
<rect width="50" height="56" fill="white"/>
</clipPath>
</defs>
</svg>
