<svg width="116" height="160" viewBox="0 0 116 160" fill="none" xmlns="http://www.w3.org/2000/svg">
<mask id="mask0_126_49" style="mask-type:luminance" maskUnits="userSpaceOnUse" x="0" y="0" width="116" height="160">
<path d="M115.777 0H0.777344V160H115.777V0Z" fill="white"/>
</mask>
<g mask="url(#mask0_126_49)">
<path d="M100.403 93.9723C108.026 84.5791 112.923 73.2919 114.57 61.329C117.808 37.543 108.046 18.7158 87.0835 8.31582C80.6115 5.10476 73.5632 3.37841 66.8997 1.88638C49.8321 -1.93541 34.2047 1.0261 20.4484 10.6853C9.25421 18.5468 3.10375 28.1492 1.64599 40.0425C0.546962 49.1026 1.14245 58.2869 3.40235 67.1313C7.96314 85.1859 16.1234 99.3758 28.3487 110.51C28.6532 110.788 28.9617 111.064 29.2708 111.34C30.6318 112.484 31.8859 113.749 33.0179 115.118C34.0543 116.46 35.2481 118.193 35.2768 119.685C35.382 125.287 35.0542 130.807 34.6843 135.935C34.455 139.109 34.0878 142.334 33.7323 145.453C33.5147 147.359 33.2977 149.265 33.1089 151.177C32.6881 155.421 34.1421 157.544 38.1272 158.505C40.4913 159.09 42.9168 159.393 45.3527 159.409H45.5766C53.6475 159.341 61.8465 159.157 69.7806 158.978L75.0732 158.861C80.2103 158.749 82.2803 156.887 82.7109 151.99C83.4649 143.414 83.8269 136.828 83.8824 130.636L83.8903 129.974C83.9347 126.301 83.9844 122.157 80.7683 118.614L86.7529 111.103C91.315 105.375 95.8653 99.6653 100.403 93.9723ZM75.1673 117.569L66.2058 116.895C66.1934 116.822 66.1914 116.749 66.1992 116.676C67.5198 111.62 68.854 106.569 70.2014 101.522C73.1986 90.2311 76.297 78.5563 79.1106 67.0129C81.2819 58.1071 81.3511 50.2149 79.3203 42.8867C78.3213 39.2809 76.4238 36.6176 73.8317 35.1848C72.583 34.5334 71.2155 34.1405 69.8106 34.03C68.4058 33.9196 66.9925 34.0937 65.6572 34.542C64.5927 34.8947 63.5673 35.3552 62.5972 35.9159L62.1987 36.1277C61.5714 36.46 60.9893 36.8433 60.3731 37.2446L60.0339 37.4657C59.8647 37.2536 59.6993 37.0421 59.5346 36.832C58.9323 36.0345 58.2893 35.2682 57.6079 34.5363C53.986 30.7698 48.7744 30.403 44.6364 33.6258C41.8358 35.8836 39.7132 38.8648 38.5008 42.243C34.234 53.1406 33.9172 64.5031 37.5593 76.0139C39.4653 82.038 41.4843 88.1349 43.4399 94.0302C44.177 96.2545 44.9123 98.4796 45.6459 100.705C47.2417 105.698 48.1753 110.876 48.4229 116.11H41.5869C41.206 111.198 37.9277 107.868 34.758 104.642C34.17 104.046 33.582 103.448 33.0116 102.839C19.9212 88.8971 12.7376 73.9651 11.0518 57.19C10.471 51.4131 10.041 45.262 10.8205 39.4213C11.9967 30.6083 17.0481 23.2264 26.2625 16.8524C37.4854 9.08915 49.9663 6.58183 63.3514 9.40004C70.4085 10.8849 77.2647 12.4843 83.5727 15.6992C99.9034 24.0244 107.371 38.5122 105.166 57.5971C103.646 70.7567 97.5609 82.3599 85.433 95.221C82.2489 98.5999 78.6924 102.745 76.4591 107.873C75.2993 110.536 74.1702 113.679 75.1673 117.569ZM75.575 133.886L75.2013 139.631H41.4099V132.867L75.575 133.886ZM74.5289 146.977L74.3335 151.391C64.2238 151.838 52.5687 152.215 41.0621 151.341C41.0393 151.184 41.0159 151.036 40.997 150.896C40.914 150.484 40.8715 150.065 40.8707 149.645C40.9158 148.666 41.0113 147.682 41.1113 146.64C41.1348 146.4 41.158 146.156 41.1811 145.909L74.5289 146.977ZM40.8231 121.832L41.787 121.86C53.4137 122.2 64.4053 122.521 75.6449 123.687L75.8083 126.452C64.2959 127.086 52.7566 127.059 41.2478 126.368L40.8231 121.832ZM49.5233 92.2123C49.0998 90.8731 48.6738 89.5339 48.2707 88.1908C46.0752 80.9134 43.964 73.7739 42.2678 66.4386C40.6911 59.625 41.6145 52.4138 45.1638 43.7446C45.9473 42.0089 47.0677 40.4448 48.4608 39.1418C48.719 38.8346 49.0394 38.5847 49.4011 38.4089C49.7627 38.233 50.1573 38.135 50.5595 38.1212C51.3214 38.1563 52.1112 38.6553 52.9064 39.6036C54.9575 42.0498 55.0016 42.6681 53.3295 45.6151C49.9278 51.6119 48.5423 57.3726 49.0944 63.2256C49.2238 65.0669 49.6556 66.8737 50.3726 68.5759C50.6608 69.4331 51.1798 70.1954 51.873 70.7794C52.5662 71.3635 53.4072 71.7472 54.3042 71.889C55.2011 72.0308 56.1199 71.9248 56.9606 71.5827C57.8012 71.2406 58.5314 70.6754 59.072 69.9489C60.2838 68.5407 61.2337 66.9284 61.8771 65.1885C64.3127 59.0183 64.7823 52.2516 63.2218 45.8066C62.7298 43.6954 64.2296 41.9221 67.3388 40.9406C68.6012 40.5419 69.593 40.5414 70.285 40.9362C70.6437 41.1861 70.9463 41.5077 71.173 41.8804C71.4004 42.253 71.5467 42.6687 71.6029 43.1008C72.387 46.5382 73.3573 50.816 72.8679 54.6586C72.0185 61.3038 70.5725 68.0015 69.1723 74.4783C68.9109 75.6965 68.6502 76.9141 68.3888 78.131C67.5498 82.0692 66.6331 86.0627 65.7462 89.9241C64.5563 95.1105 63.3285 100.474 62.2634 105.782C61.8134 108.387 61.5624 111.02 61.5127 113.662C61.4644 114.722 61.4152 115.808 61.3421 116.922L53.377 116.434C54.461 107.823 51.9532 99.8897 49.5251 92.2123H49.5233ZM56.2736 58.6877L56.735 55.8619C56.7332 56.8222 56.5781 57.7759 56.2756 58.6877H56.2736Z" fill="#EF8517"/>
</g>
</svg>
