<svg width="40" height="40" viewBox="0 0 40 40" fill="none" xmlns="http://www.w3.org/2000/svg">
<path d="M40 20C40 31.0457 31.0457 40 20 40C8.9543 40 0 31.0457 0 20C0 8.95431 8.9543 0 20 0C31.0457 0 40 8.95431 40 20Z" fill="#0077FF"/>
<path fill-rule="evenodd" clip-rule="evenodd" d="M33.699 12.2714C33.9083 11.5736 33.699 11.0607 32.703 11.0607H29.4096C28.5722 11.0607 28.1861 11.5038 27.9767 11.9923C27.9767 11.9923 26.3019 16.0746 23.9292 18.7264C23.1616 19.494 22.8127 19.7382 22.394 19.7382C22.1847 19.7382 21.8706 19.494 21.8706 18.7961V12.2714C21.8706 11.434 21.6386 11.0607 20.9407 11.0607H15.7652C15.2419 11.0607 14.9272 11.4495 14.9272 11.8178C14.9272 12.6117 16.1134 12.7947 16.2357 15.0278V19.8778C16.2357 20.9412 16.0437 21.134 15.625 21.134C14.5085 21.134 11.7926 17.0334 10.1818 12.3412C9.86615 11.4292 9.54953 11.0607 8.70781 11.0607H5.41435C4.47336 11.0607 4.28516 11.5038 4.28516 11.9923C4.28516 12.8646 5.40171 17.1911 9.48403 22.9133C12.2056 26.8212 16.04 28.9396 19.5292 28.9396C21.6227 28.9396 21.8817 28.4691 21.8817 27.6587V24.7051C21.8817 23.7641 22.08 23.5764 22.7429 23.5764C23.2314 23.5764 24.0688 23.8205 26.0228 25.7047C28.2558 27.9378 28.624 28.9396 29.8801 28.9396H33.1735C34.1145 28.9396 34.585 28.4691 34.3136 27.5406C34.0166 26.6152 32.9504 25.2726 31.5357 23.681C30.768 22.7738 29.6166 21.797 29.2677 21.3084C28.7792 20.6804 28.9188 20.4012 29.2677 19.843C29.2677 19.843 33.2803 14.1905 33.699 12.2714Z" fill="white"/>
</svg>
